/* XPM */
static char *_638592089765[] = {
/* columns rows colors chars-per-pixel */
"32 32 239 2 ",
"   c #331713",
".  c #2E2A22",
"X  c #353125",
"o  c #35332A",
"O  c #3C382D",
"+  c #372F2D",
"@  c #4C1C14",
"#  c #481715",
"$  c #521B19",
"%  c #581B18",
"&  c #4B1C0C",
"*  c #681E1D",
"=  c #5D231A",
"-  c #5E2B1D",
";  c #4C2D1E",
":  c #67221A",
">  c #652216",
",  c #752919",
"<  c #72311B",
"1  c #542B27",
"2  c #453328",
"3  c #59342A",
"4  c #463B34",
"5  c #652F25",
"6  c #782E27",
"7  c #693D2D",
"8  c #69362A",
"9  c #7C3524",
"0  c #793627",
"q  c #623A33",
"w  c #793230",
"e  c #3C4336",
"r  c #4D4A3C",
"t  c #474437",
"y  c #534D3C",
"u  c #7C452A",
"i  c #62463A",
"p  c #764935",
"a  c #4E4C42",
"s  c #534E42",
"d  c #57544A",
"f  c #5A5A54",
"g  c #674C44",
"h  c #665C4A",
"j  c #74564B",
"k  c #615E52",
"l  c #645A55",
"z  c #765B50",
"x  c #656355",
"c  c #6B6453",
"v  c #656458",
"b  c #6B665B",
"n  c #6E6C5C",
"m  c #6D6855",
"M  c #736E5F",
"N  c #736457",
"B  c #74715E",
"V  c #787658",
"C  c #6D6B63",
"Z  c #736E63",
"A  c #706F6C",
"S  c #6D7364",
"D  c #757363",
"F  c #75726A",
"G  c #7C7A6A",
"H  c #7C7668",
"J  c #7C7B73",
"K  c #787570",
"L  c #8A3B2D",
"P  c #833A27",
"I  c #8B3C32",
"U  c #913F2D",
"Y  c #84422A",
"T  c #97472D",
"R  c #844935",
"E  c #934432",
"W  c #964B33",
"Q  c #9A4735",
"!  c #9F5237",
"~  c #AC4D33",
"^  c #A64E3C",
"/  c #A44C37",
"(  c #A2533B",
")  c #AD5C3A",
"_  c #A65235",
"`  c #B05B3D",
"'  c #B55837",
"]  c #9E6037",
"[  c #AD643D",
"{  c #B6643D",
"}  c #8A5A46",
"|  c #955647",
" . c #A95944",
".. c #AC5F4B",
"X. c #8D654A",
"o. c #8D6956",
"O. c #9C6858",
"+. c #9D7157",
"@. c #996746",
"#. c #A86546",
"$. c #B56344",
"%. c #BC6B4B",
"&. c #B76847",
"*. c #B6714E",
"=. c #BB724C",
"-. c #BA7548",
";. c #A16653",
":. c #BC6C54",
">. c #BC7452",
",. c #BE7956",
"<. c #B67356",
"1. c #A5705E",
"2. c #847B68",
"3. c #9B7563",
"4. c #8B766C",
"5. c #AD7A67",
"6. c #B37A67",
"7. c #C3734C",
"8. c #C3794D",
"9. c #C9774C",
"0. c #C27452",
"q. c #C57A52",
"w. c #C67957",
"e. c #C06C4A",
"r. c #C87E65",
"t. c #BD815D",
"y. c #86866C",
"u. c #858472",
"i. c #8C8C74",
"p. c #8E8C7A",
"a. c #878975",
"s. c #938D75",
"d. c #928D7B",
"f. c #9A8B76",
"g. c #8C9277",
"h. c #93917B",
"j. c #98967A",
"k. c #9A8067",
"l. c #AB8569",
"z. c #A88B79",
"x. c #BB8A78",
"c. c #A39D7E",
"v. c #A39179",
"b. c #BC9777",
"n. c #B68767",
"m. c #9FA17C",
"M. c #A6A27F",
"N. c #CA855B",
"B. c #D3895C",
"V. c #CC8C64",
"C. c #C68767",
"Z. c #D28D6B",
"A. c #CB956E",
"S. c #D4926C",
"D. c #D79668",
"F. c #C69975",
"G. c #DA9C74",
"H. c #D99874",
"J. c #CC8F7C",
"K. c #E39974",
"L. c #DDA277",
"P. c #E3AB7C",
"I. c #E8A57B",
"U. c #969383",
"Y. c #9C9983",
"T. c #938F83",
"R. c #A29E84",
"E. c #A59D8A",
"W. c #9FA58B",
"Q. c #A5A484",
"!. c #ABA385",
"~. c #A5A58A",
"^. c #AAA58B",
"/. c #ABAB8C",
"(. c #A3A88A",
"). c #B0AB8B",
"_. c #B2AD91",
"`. c #B4B495",
"'. c #BBB593",
"]. c #BCB994",
"[. c #BBB499",
"{. c #BDBB9B",
"}. c #B4B799",
"|. c #B5AF91",
" X c #B5B9A0",
".X c #C09988",
"XX c #D9A686",
"oX c #DAB389",
"OX c #C1BB9A",
"+X c #D4AD96",
"@X c #E3AD84",
"#X c #E8A785",
"$X c #EBB385",
"%X c #ECB48B",
"&X c #E9B88C",
"*X c #E3B89C",
"=X c #E8BA95",
"-X c #F3BB91",
";X c #C3BBA5",
":X c #D4B3A4",
">X c #EAB6A0",
",X c #BCC198",
"<X c #C3C49B",
"1X c #DDC09E",
"2X c #EAC598",
"3X c #F4C29A",
"4X c #F4CB9D",
"5X c #FAC49D",
"6X c #F3D19D",
"7X c #F0C38C",
"8X c #C7C3A4",
"9X c #DAC6AD",
"0X c #EAC2A3",
"qX c #F4CCA3",
"wX c #F9CDA3",
"eX c #F8CAA7",
"rX c #F5D0A6",
"tX c #FCDBAE",
"yX c #F9D3AA",
"uX c #EBC8B4",
"iX c #FCD5B2",
"pX c #F7D9B8",
"aX c #E8D4BA",
"sX c #FCE3BC",
"dX c #F5E6BF",
"fX c #FBDDC4",
"gX c #F9DECB",
"hX c #EED8C1",
"jX c #F3E3C4",
"kX c #FCE4C5",
"lX c #FEE9C5",
"zX c #FDE5CA",
"xX c #FEEACC",
"cX c #F7E7C9",
"vX c #FFE5D1",
"bX c #FFECD3",
"nX c #FFF2D2",
"mX c #FEF8D8",
"MX c #FFF0CE",
/* pixels */
"uXxXbXcXgXo.gXbXkXfXlXlXkXlXkXbXx.3.bXjXjXdXsXgX;.aXcXcXzXjXlXfX",
">.Z.@X3XXXu oXeXcXzXbXgXgXfXzXjXxXo.9XbXbXxXcXmX6.6.bXxXxXlXxXgX",
"W #./ L , , *.,.V.G.XXeXlXxXzXbXnX:X} *X*X*X=X=XZ.Y L.=XoX0X*X*X",
"9 9 R x.+X1.9 E T  .%.>.A.=X0X>XoXJ.0 W #.-.8.&.( u P :.w.&.*.:.",
"S.G.&XtXkXxXuXx.O.p P E $.e.%.=.&.=.( 9 $.~ L P 5.hXz.< *.q.0.[ ",
",.%X$X5XwXpXcXbXvXaX+X} , _ $.8.0.9.%.> 0 | 3.:XvXzXzX+., E  .L ",
"<.#X#X&X4XrXyXyXsXkXnXbX.X0 E $.=.9. .p *XfXvXxXcXkXxXkXJ.+.;.8 ",
"[ C.$X@X@X3XwXwXrXiXfXpXlX+XY T ` Q 6 *XyX6XyXqXiXdXpXyXtXyXiXC.",
"/ ,.Z.L.$X$X%X5X5X4X4X2XqXiX#XR w 0 r.wX7X2X-X3XqXyXwX6X=X&X$XG.",
"0 $.9.N.C.C.Z.Z.L.I.P.$X$X$X%X@X0 ..K.Z.L.&XL.oX=X-X4X-X@XG.S.;.",
"1 = T &.=.>.>.=.<.q.N.B.S.H.G.V.w.W %.%.,.G.-X#X@XP.$X#XN.N.( 1 ",
"9Xz.7 > W { %.%.0.q.=.,.0.=.7.e.>.P ( q.,.-.D.#X#XI.V.q.w.) = N ",
"iXlXaX3.$ 6 ( ' { $.$.$.) ) ^ Q : @ P &.0.-.-.w.0.8.-.8.%.= g T.",
"4X4XtXkXz.1 % 0 Q ^ ~ ~ / L > @ j g - ^ ` e.8.0.0.0.8.-.P 1 J g.",
"2X4XeXrXyX1X3.q % : P L : @ g v.OX8Xy 6 ^ Q $.{ &.$.` ^ - f a.g.",
"@X&X-XeXeXwXiX2XF.o.1 # 3 3.OX8XOXOXE.% L ! / ~ ~ ^ ~ E q D G T.",
"V.D.S.L.P.@X&X%X-X-Xl.; ^.<X].}.OX'.8Xo.@ w I I E L L 5 i K Z s.",
">.>.=.-.w.V.N.D.D.I.n.m  X{.].'.|.`.}./.j # @ & $ $ $   + C Z Z ",
"..%.e.9.0.<.>.0.8.C.p y./././.'././.m.j.U.b 4 f.k.v.f.f.s o l F ",
"* U [ { { $.%.$.&.7 y Y.Q.~.!.M.E.!.!.h.u.f s 8X<X<X,X<X8X2.X 4 ",
"3 # 6 E ~ ~ _ ! 5 h g.s.Y.E.E.M.^.c.v.D K O 2.<X[.[.}.{.[.'.a.4 ",
"aXs.4 # : w R 1 M T.p.a.s.g.g.f.i.h.i.K d t ).).[.[._.|./.R.Y.D ",
"tXxX9Xv.c ;   k g.h.U.T.p.i.i.d.i.g.G v X p.Q.Q.c.M.Q.c.!.Q.U.C ",
"yXeXsXkXcX;Xr C F D V G u.u.i.p.i.J C . m R.Y.~.(.!.^./.j.g.h.b ",
"2XwXeXqXpXMX;X4 m A S S M S S B B S o r j.i.p.U.h.h.h.s.i.p.p.x ",
"$X%XwXwXqX4XtXF.e h v n Z D A D n a X C G i.u.h.p.p.d.u.h.d.G k ",
"H.L.L.@X$X%X7X4Xn.y k f v v b v f o d F S n G G y.G y.u.y.G B x ",
"<.<.=.8.w.S.S.#XP.h o a r a r r . X d x b D D n Z A Z C C F K f ",
"$.e.9.7.=.[ @.] X.l.h G N c C Z x x d t t r s x k b x x m x v d ",
"8 p p X.X.+.n.b.2XoXN ).].<X8X].{.[.|.j.u.b 4 O y t r r r r 4 . ",
"#.<.*.>.>.V.N.G.C.2 F _.R.W.Q.M.j.Q.!.Q.d.U.d s {.^./.~.^._.h.y ",
"0 ! &.7.7.=.-.] + B Y.c.Q.~.E.!.^.Q.M.s.H Z X G <X{.{.8X;X{.8X^."
};
