/* XPM */
static char *_db01a3e367947449b92ef896aa328d5CbXsroQtPSItarGW[] = {
/* columns rows colors chars-per-pixel */
"32 32 220 2 ",
"   c #3B0800",
".  c #4C0400",
"X  c #460000",
"o  c #5B0200",
"O  c #560904",
"+  c #650001",
"@  c #6C0907",
"#  c #640C0B",
"$  c #6C0406",
"%  c #730201",
"&  c #7B0201",
"*  c #7B0409",
"=  c #7B0A07",
"-  c #64150E",
";  c #771808",
":  c #710610",
">  c #761B18",
",  c #59301C",
"<  c #782716",
"1  c #651E26",
"2  c #6B3123",
"3  c #792F26",
"4  c #724221",
"5  c #7C4D2C",
"6  c #774B29",
"7  c #7D512F",
"8  c #77512D",
"9  c #7D4B38",
"0  c #7E5333",
"q  c #7F5B39",
"w  c #840104",
"e  c #8C0204",
"r  c #8C0A05",
"t  c #8C040A",
"y  c #850B0C",
"u  c #920304",
"i  c #94040A",
"p  c #9B000C",
"a  c #930C0A",
"s  c #9B0A0E",
"d  c #8E120D",
"f  c #93140C",
"g  c #810811",
"h  c #9B0C12",
"j  c #9E0710",
"k  c #8A1814",
"l  c #971613",
"z  c #981B14",
"x  c #A30406",
"c  c #A30C0E",
"v  c #A5030C",
"b  c #B1020D",
"n  c #A40D11",
"m  c #AB0E13",
"M  c #AC0516",
"N  c #B40A12",
"B  c #BB0B18",
"V  c #A31113",
"C  c #AC1114",
"Z  c #A51618",
"A  c #B21217",
"S  c #B51318",
"D  c #BC141A",
"F  c #BD1A1C",
"G  c #B71817",
"H  c #812415",
"J  c #96281A",
"K  c #803E1E",
"L  c #A5291F",
"P  c #872628",
"I  c #902C2E",
"U  c #8F3221",
"Y  c #983726",
"T  c #9D2D39",
"R  c #9B333A",
"E  c #893E3B",
"W  c #A52623",
"Q  c #B72927",
"!  c #A13526",
"~  c #A4362A",
"^  c #AC3C2E",
"/  c #BA342D",
"(  c #A62F31",
")  c #AC3C30",
"_  c #B43A33",
"`  c #C20F1B",
"'  c #C61C17",
"]  c #C4151D",
"[  c #CC141C",
"{  c #C31A1F",
"}  c #CC1A1A",
"|  c #C91517",
" . c #D3141D",
".. c #DA131F",
"X. c #D00719",
"o. c #C61421",
"O. c #CD1723",
"+. c #CF1A21",
"@. c #DB1522",
"#. c #D41920",
"$. c #DB1C24",
"%. c #D71722",
"&. c #E81A25",
"*. c #CA2121",
"=. c #C42124",
"-. c #C5342F",
";. c #C53731",
":. c #8A422A",
">. c #834B2D",
",. c #8A4A2F",
"<. c #99432F",
"1. c #91412A",
"2. c #85532E",
"3. c #844F32",
"4. c #874C3D",
"5. c #984833",
"6. c #845333",
"7. c #895536",
"8. c #855936",
"9. c #8A5A36",
"0. c #83533A",
"q. c #8A5639",
"w. c #865B3A",
"e. c #8C5B3B",
"r. c #935336",
"t. c #94553C",
"y. c #925D3D",
"u. c #9B553B",
"i. c #A84233",
"p. c #A6543F",
"a. c #85603C",
"s. c #8B613E",
"d. c #94623E",
"f. c #98673E",
"g. c #804F4B",
"h. c #9E4E47",
"j. c #8D5D43",
"k. c #8E5E48",
"l. c #955E42",
"z. c #9C5D42",
"x. c #975A4C",
"c. c #9B5F55",
"v. c #A25E43",
"b. c #A95B49",
"n. c #A54C50",
"m. c #AF5459",
"M. c #B75554",
"N. c #8D6342",
"B. c #8E6844",
"V. c #8B6847",
"C. c #946343",
"Z. c #9A6445",
"A. c #946947",
"S. c #996845",
"D. c #95664B",
"F. c #9B6649",
"G. c #95694A",
"H. c #9C6B4B",
"J. c #8D714D",
"K. c #9D714F",
"L. c #93714C",
"P. c #986D52",
"I. c #967551",
"U. c #9D7351",
"Y. c #9F765A",
"T. c #9D7D57",
"R. c #A4644B",
"E. c #A36B4D",
"W. c #A8654B",
"Q. c #B3654E",
"!. c #A3714D",
"~. c #A46C51",
"^. c #A66856",
"/. c #B76752",
"(. c #A37352",
"). c #AA7456",
"_. c #A5745D",
"`. c #AA7558",
"'. c #A47A5A",
"]. c #AB7A5A",
"[. c #A57A54",
"{. c #B27B5C",
"}. c #B47659",
"|. c #B25F69",
" X c #AA6E63",
".X c #BA6669",
"XX c #BE6C6E",
"oX c #AF7C68",
"OX c #C34840",
"+X c #D1564F",
"@X c #C26E5B",
"#X c #C67A6A",
"$X c #AB815B",
"%X c #B2825B",
"&X c #B48363",
"*X c #B88467",
"=X c #BC896A",
"-X c #B78A69",
";X c #BC897A",
":X c #A78874",
">X c #CB846E",
",X c #C28472",
"<X c #C09477",
"1X c #CC8981",
"2X c #E59284",
"3X c #C3A990",
"4X c #DDA293",
"5X c #C9B89C",
"6X c #E0A094",
"7X c #CEAEAF",
"8X c #DEB3B6",
"9X c #E3ADAB",
"0X c #EABDA8",
"qX c #E8C8B6",
"wX c #FFE0DD",
"eX c #FFF0DC",
"rX c #FFECE9",
"tX c #FDFEF4",
"yX c #FFF6F0",
"uX c #E9CFCE",
/* pixels */
"5 F.e.H.A.C.6.(.d.2.7.0.l.D.S.d.P.Y.C.C.9.2.j.j.l.(.e.F.H.H.>.8.",
"E.6 q.(.H.7.y.e.t.H.`.C.7 D.`.E., Y.N.K.K.S.C.0.F.(.C.4 7 C.H.H.",
"&X6.C.F.(.8.H.C.Z.*X].A.6.e.G.P.  oXj.j.].&X9.7.C.C.(.F.].C.(.(.",
"e.(.S.5 S.F.(.].4.Z.U.[.'.D.k.2   9  X8 ].!.!.[.e.6.C.(.(.7.C.`.",
"C.-XH.6.7.C.6.5 x.q.w.A.(.F.x.X O X  X_.D.2 [.f.e.C.y.C.7 e.C.F.",
"7.7 7.`.N.`.(.C.).H.B.w.j.,XO # @ O - 4X0.G.8.2.H.(.C.[.C.!.s.C.",
"*Xd.S.&XH.e.e.q.e.N.'. X4X3 + + % + o h.;X_.P.C.].H.q.C.H.F.e.F.",
"e.8.e.7.(.6.s.=X%X6 P.0XP.O $ * & & @ .  XD.0.0 C.H.C.5 ].].H.9.",
"Z.C.H.7.y.y.S.r.~.x.5X;X$ % & % @ % = y ; p.Z.U.e.7.C.d.q.H.U.6.",
"D.`.(.l.C.].E.2.9 3X4X- @ w & % & * & k y < `.[.C.F.].(.e.>.N.U.",
"d.].H.6.0 ].U.H.:XqX> * % w w = & y & d k < :.E.0 e.N.H.U.S.C.F.",
"5 q.l.F.F.j.8 I.qX4.h.g w d & t w w r w f ! ; 1.A.U.e.7 G.K.q.>.",
"(.6.6.S.].w.j.<Xg..X#X% i e i e t e u e z z Y H y.}.H.7 0 e.S.`.",
"{.H.s.7 D.P.oX,X1 wXI = r p e s u h i t a f ~ J < r.E.E.A.s.!.,X",
">.E.(.s.N._.^.< 8X9Xg u a u i i i s s e r z z _ U Y z.`.!.s.s.e.",
"f.!.s.s.0 ^.M.H tX|.% M x f l h V i s a s r J J Y U 5.y.6.s.H.C.",
"y.6.J._.'.,X: 7XrXT i j n s h n n n n s s s V Z Y Y Q.).a.9.(.Z.",
"%XC.J.K.A.b.P rXqXk j n V n V n n m m n h s c V J Y <.9.!.).z.7.",
"9.9.q l.C.t.n.tX1Xt M m V C n M m m m m C n c c a L U ,.U.{.l.q.",
"9.(.P.l.U.W..XtXM.i D C C A A S S A S S A C n c c V ! W.7 C.Z.N.",
"Z.*X[.3.C.^.XXtX( v ` m A G F ` D D A A A S N C N c W }.7.j.C.H.",
"2.d.N.q.C.z.m.yXW b ` C G D o.D o.D D D D D G A B c J u.U.H.q.D.",
"F.q.V.`.(.b.R uX_ b ] A F ] ] ] o.] { ] ] D D D D m J r.A.N.q.j.",
"}.3.q ~.H.Q.T 8X+XN o.F D ` [ +.] o.] { { D D G D x _ y.8 q.*X`.",
"S.N.V.N.8.(.}.b.2XW B @.` D ' }  .[ | *.{ F { D N z >X$XT.C.6.&X",
"y.(.$XN.5 Z.W.U /./ O.@.+.+.} [ ..%.#.} [ [ +.| Q i.).B.d.9.C.e.",
"r.y.C.8.q.(.~.,./._ o.X.@.$. .&......... .o.{ F <.R.A.s.q.7.}.C.",
"{.z.e.[.].H.C.F.C.5./ { [ @...&.$.$.%.+.=./ i.<.{.K.L.K.z.t.C.e.",
"R.t.y.[.H.8 6.$XJ.F./.OXQ Q -.-./ -.;./ ^ b.E.w.I.s.q e.`.`.e.a.",
"6.e.q.q.e.e.C.U.T.N.t.p.r.:.r.Z.K W.>X}.u.>.9.s.6 A.w.6.(.}.B.s.",
"K.&X!.8.F.`.A.7.s.8.8.(.-XK.w.I.$Xf.6 6 e.Z.H.}.y.(.].A.e.7.9.8.",
"0 [.(.q.C.~.S.e.>.[.A.7.(.y.>.F.f.f.9.d.K.C.C.}.R.>.H.(.e.7.F.E."
};
