/* XPM */
static char *_82448611859479ab47e7a1431b4c60ajqtfudQ9KFw9OCIq[] = {
/* columns rows colors chars-per-pixel */
"32 32 232 2 ",
"   c #00140F",
".  c #071A16",
"X  c #162B1C",
"o  c #2E172A",
"O  c #002321",
"+  c #1C2C25",
"@  c #113232",
"#  c #2A2727",
"$  c #362B21",
"%  c #3F2C3F",
"&  c #38362C",
"*  c #311418",
"=  c #6F3E1D",
"-  c #5D223E",
";  c #4E3437",
":  c #6E2833",
">  c #00453A",
",  c #254836",
"<  c #3B483B",
"1  c #354528",
"2  c #7E4B16",
"3  c #5A462E",
"4  c #7C4B2C",
"5  c #774826",
"6  c #7B532B",
"7  c #7A4E33",
"8  c #7F5232",
"9  c #7A5C37",
"0  c #694B27",
"q  c #113E41",
"w  c #383A46",
"e  c #5C374C",
"r  c #4C344E",
"t  c #6B2E50",
"y  c #743658",
"u  c #6B2C51",
"i  c #643A62",
"p  c #334545",
"a  c #21524F",
"s  c #374A58",
"d  c #304B60",
"f  c #1E6174",
"g  c #0E4B4E",
"h  c #474749",
"j  c #41514E",
"k  c #56584C",
"l  c #574752",
"z  c #4C5559",
"x  c #654646",
"c  c #605D4C",
"v  c #7E5340",
"b  c #6C4053",
"n  c #76455A",
"m  c #77535A",
"M  c #4F624F",
"N  c #696559",
"B  c #7B7B5D",
"V  c #736B59",
"C  c #575364",
"Z  c #465E68",
"A  c #7A4B69",
"S  c #7D5C63",
"D  c #567664",
"F  c #6B776C",
"G  c #7E667C",
"H  c #814E2E",
"J  c #834B26",
"K  c #89572E",
"L  c #86562A",
"P  c #824F31",
"I  c #8D4E3C",
"U  c #845434",
"Y  c #885636",
"T  c #8A5A36",
"R  c #845539",
"E  c #8A573A",
"W  c #865A3B",
"Q  c #8C5B3B",
"!  c #865836",
"~  c #915C3E",
"^  c #9C5B3C",
"/  c #9C5838",
"(  c #8E613E",
")  c #89633B",
"_  c #94633E",
"`  c #A7683C",
"'  c #921B55",
"]  c #893859",
"[  c #8F2B51",
"{  c #973A68",
"}  c #8A3463",
"|  c #A63569",
" . c #B73A6A",
".. c #B23173",
"X. c #8D5D42",
"o. c #8A5D4A",
"O. c #885545",
"+. c #945B42",
"@. c #93584D",
"#. c #964256",
"$. c #815A52",
"%. c #985B56",
"&. c #A45C5F",
"*. c #8E6141",
"=. c #8D6C4C",
"-. c #896647",
";. c #946343",
":. c #996647",
">. c #93644A",
",. c #9B654B",
"<. c #956A4A",
"1. c #9C6B4B",
"2. c #9A6D45",
"3. c #9C714D",
"4. c #977349",
"5. c #86605A",
"6. c #8B6959",
"7. c #9C6451",
"8. c #9C6D51",
"9. c #9C6A5B",
"0. c #926A57",
"q. c #9F7151",
"w. c #9B755B",
"e. c #A16E4F",
"r. c #A1634A",
"t. c #A4774F",
"y. c #A36E50",
"u. c #A86556",
"i. c #A47353",
"p. c #AA7656",
"a. c #A67957",
"s. c #A1745C",
"d. c #AA7758",
"f. c #A67A5B",
"g. c #AC7B5B",
"h. c #AF7B56",
"j. c #B17E5F",
"k. c #B0745C",
"l. c #994B6B",
"z. c #985D6E",
"x. c #92427F",
"c. c #884F70",
"v. c #A44062",
"b. c #A65863",
"n. c #A24272",
"m. c #AA4D7C",
"M. c #A55272",
"N. c #B15E70",
"B. c #BE4C7D",
"V. c #9A7766",
"C. c #9C7872",
"Z. c #8C6A6B",
"A. c #A8696A",
"S. c #AC7E62",
"D. c #A87767",
"F. c #B17F66",
"G. c #B8687A",
"H. c #AB7879",
"J. c #B06C76",
"K. c #C47D5F",
"L. c #C2776E",
"P. c #B2835C",
"I. c #85846A",
"U. c #90816C",
"Y. c #928878",
"T. c #AC8164",
"R. c #B48363",
"E. c #BA8668",
"W. c #AC8374",
"Q. c #BA8979",
"!. c #C5816E",
"~. c #705E88",
"^. c #BD3780",
"/. c #975487",
"(. c #B15586",
"). c #98788D",
"_. c #B0628C",
"`. c #BC7685",
"'. c #BF6F92",
"]. c #AF7992",
"[. c #DF518B",
"{. c #CD4F92",
"}. c #D74A93",
"|. c #E8589A",
" X c #E2489E",
".X c #C96C8E",
"XX c #DA6699",
"oX c #CB7297",
"OX c #DA7C98",
"+X c #E96596",
"@X c #DB59A3",
"#X c #F744A4",
"$X c #E959A4",
"%X c #F856A8",
"&X c #FF56B2",
"*X c #EB4CA6",
"=X c #DE73A9",
"-X c #D46DA7",
";X c #EA7BAC",
":X c #F773AC",
">X c #FE6EB4",
",X c #FF74BC",
"<X c #F978BB",
"1X c #E674BA",
"2X c #FF6CC3",
"3X c #FD67C1",
"4X c #FF71C4",
"5X c #FE7CC4",
"6X c #FF76C9",
"7X c #FF7BC9",
"8X c #EB78C5",
"9X c #2A99A2",
"0X c #2BA0AA",
"qX c #65A89F",
"wX c #649BA2",
"eX c #67BACC",
"rX c #5EFFFF",
"tX c #56E8F7",
"yX c #71FFFE",
"uX c #6DFBEB",
"iX c #A2818C",
"pX c #C5858B",
"aX c #DE828F",
"sX c #D78D9C",
"dX c #DC8FA3",
"fX c #E080AE",
"gX c #F788B3",
"hX c #F981C5",
"jX c #FF8AD7",
"kX c #ED8AC1",
"lX c #FF92E9",
"zX c #87C1CD",
/* pixels */
"4 1.;.1.~ ;.U e.;.U P ! ~ :.:.;.1.E e.;.! 8 :.Q Q t.Q :.3.1.H Q ",
"e.5 T i.e.T ( _ W i.p.X.! ;.i.e.5 Q Q e.:.e.T ! 1.p.Q 5 J _ 1.e.",
"j.H ~ 1.i.W 1.;.;.P.R.;.U Q 1.i.:.g.Q ;.g.E.E U *.( a.1.j.:.i.i.",
"~ e.:.H <.1.q.a.T ;.1.a.g.;.U U g.e._ U a.i.i.p.W 8 ;.q.i.Y :.p.",
";.R.i.W U ;.R 9 :.Q Q :.i.:.Q T :.U :.:.;.U 1.i.*.<.*.*.5 W ;.,.",
"R U R i.( f.q.;.p.:.;.Q E 1.g.:.i.E Q a.Y ( Q U <.q.*.q.>.y.Q Q ",
"R.>.<.f.q.*.*.R :.Q i.g.;.1.p.E :.:.Q :.;.g.1.;.f.q.R *.i.<.W :.",
"X.W W R S.4.T.Q.g.U Q 1.U ! i.1.5 a.E.( :.;.e.g.S.T.8.4 D.S.8.W ",
"/ <.V.N N k M D V.B =.Q <.+.O.X.^ _ -.<.w.Z.F Z Z z F I.V :.t.6 ",
",.C.x i { { { } - < Z.V.T.3.! P.R.9 6.Y.k h t { | | ] y m O.>.3.",
"z.] {. X*X&X&X#X|.C , k V.;.J K s.@.V 1 s m.&X$X%X$X%X*X^.n 5.u.",
"[ [.%X2X6X7X8XjX(.p < 5.O.+.k.<.9 ^ 9.N X S =X7X,X5X7X2X|. .#.$.",
"L.z.z.oX:X,XkXA e l # x 9 X.K.p.L +.D.$ ; e e ].7X>XXX`.`.A.b.b.",
"!.+.-.0.OXgX{ e }.(.h < 3 9 U *.w.W.$ # c.}.| r 1XfXpXs.=.=.s.H.",
"5 e.i.@.sXn.' $X2X$XG ].: & B B iX* c.c./.7X&X..i oXOXk.4.) P 0.",
"1.a.*.o.J.} @X6X,X=Xa ).[.y % z X n._.z ~.jX6X1X..M.C.X.H 2.:./ ",
"o.8 9.A.] B.,X2X7XZ.@ D G.] & r ; S b p e ;XkX6XXX| &.S.) 6 8.,.",
"E.:.>.F.J.N..X;X-X] m.y < g @ o > p e l.y /.5XXXsXG.%.O.q.a.+.I ",
"Y L 6 ) ;.E %.pXx.{.3X{ > uXwX  tXeX# +X%X/.-XL.@.@.O.4 e.E.:.+.",
"~ h.4.) 4.q.>.s.[ XXlX{ q yXwX  rXeXo :X,Xl.S D.R R S.7.H ;.;.I ",
"r.F.y.U :.f.<.o.9.oX-X| w 9Xd e 0Xf y XXdXpX6.iX_ T R.h.E T ~ 1.",
"O.+.+.+.>.:.7.S.w.@.b.N._.@ w l.. C '.n H.7 >.D.K T U Q p.1.! 3.",
"+.Y +.p.e.~ X.:.~ 6 0.<.@.m # # $ H.0.P.r.7.R 5 t.p._ T e.;.8 ! ",
"g.T T 2.2.;.( U :.t.R.T.0 D.1 + Y.*.L ` p.Q.r.2 r.e.1._ 5 T E.d.",
":.;.:.*.E i.P.y.5 a.i.*.<.4.<.a.g.k.e.U y.y.e.:.U ~ ;.a.P.E U R.",
"Q p.g.;.4 ;.1.U E ( ( 1.f.<.( W ;.U H Q 1._ r.F.:.Q Q ;.;.;.+.T ",
"! Q :.Q Q q.1.U g.( U Q W W ;.) :.~ ,.p._ P P ,.:.Q :.:.U ;.i.;.",
"g.;.Q a.h.:.;.;.:.;.1.e.;.i.P.<.d.1.E ~ Q h.y.U j.1.e.i.( E ;.( ",
"1.Q Q i.1.4 ! g.:.;.e.:.! ;.3.*.H ,.e.1.U i.e.T e.:.Y Q g.i.~ E ",
"U Q E ! X.~ ;.p.p.~ U Q ! 8 U ;.J 1.P.F.Q H P ~ 5 >.Q U i.g.;.;.",
"e.E.i.! :.g.:.! ~ Q Q e.E.q.Q i.j.~ 5 H :.,.e.d.Q i.h.<.Q ! ! Q ",
"H a.p.! ;.i.:.Q U e.1.Q 1.:.4 ,.:.:.:.E e.~ :.p.:.P ;.i.Q T 1.1."
};
