/* XPM */
static char *ZW5uZW1pZQ__[] = {
/* columns rows colors chars-per-pixel */
"32 32 212 2 ",
"   c #010101",
".  c #0B0202",
"X  c #01030A",
"o  c #0B0609",
"O  c #0E0C0C",
"+  c #040804",
"@  c #110300",
"#  c #130B08",
"$  c #12140B",
"%  c #181107",
"&  c #040213",
"*  c #0D0212",
"=  c #090B1A",
"-  c #140B10",
";  c #0F1012",
":  c #191517",
">  c #330F0F",
",  c #211307",
"<  c #25171A",
"1  c #331714",
"2  c #1F210B",
"3  c #352B02",
"4  c #282B1C",
"5  c #372516",
"6  c #373119",
"7  c #1E1C21",
"8  c #292627",
"9  c #312528",
"0  c #332F3D",
"q  c #213131",
"w  c #3B3939",
"e  c #4A0D1A",
"r  c #492E1B",
"t  c #493327",
"y  c #473A38",
"u  c #5A2F28",
"i  c #524D03",
"p  c #585D1D",
"a  c #6F5E10",
"s  c #665706",
"d  c #716C06",
"f  c #5A4D31",
"g  c #7C4A2B",
"h  c #794322",
"j  c #794C30",
"k  c #645430",
"l  c #7C5233",
"z  c #78593A",
"x  c #6C522F",
"c  c #413C43",
"v  c #4C4248",
"b  c #5A4D45",
"n  c #57544E",
"m  c #594D51",
"M  c #675246",
"N  c #775948",
"B  c #645454",
"V  c #7C604A",
"C  c #7F695E",
"Z  c #5D5964",
"A  c #766B68",
"S  c #7B716F",
"D  c gray44",
"F  c #656567",
"G  c #902B1F",
"H  c #933B15",
"J  c #BF3518",
"K  c #9E4606",
"L  c #846A14",
"P  c #BC670C",
"I  c #814E2E",
"U  c #9C4622",
"Y  c #81512E",
"T  c #8C552E",
"R  c #824F30",
"E  c #884A31",
"W  c #845334",
"Q  c #895536",
"!  c #845937",
"~  c #83553A",
"^  c #8A5639",
"/  c #835C3B",
"(  c #8C5B3B",
")  c #8D5934",
"_  c #915B36",
"`  c #915D3E",
"'  c #9E5936",
"]  c #9F4A36",
"[  c #AD4F2B",
"{  c #B34235",
"}  c #A3503E",
"|  c #A85030",
" . c #8C643D",
".. c #876B3A",
"X. c #876537",
"o. c #93603D",
"O. c #97683B",
"+. c #8F7632",
"@. c #AD6639",
"#. c #CC7414",
"$. c #C25824",
"%. c #C4613A",
"&. c #804C41",
"*. c #835B41",
"=. c #8B5D42",
"-. c #865849",
";. c #945F41",
":. c #9C5B42",
">. c #915D4B",
",. c #965745",
"<. c #805B55",
"1. c #915C56",
"2. c #AE4F4D",
"3. c #A75A4D",
"4. c #BC5E52",
"5. c #8C6244",
"6. c #83634D",
"7. c #8D614A",
"8. c #886746",
"9. c #946243",
"0. c #996544",
"q. c #926A44",
"w. c #9C6945",
"e. c #94644A",
"r. c #9C654A",
"t. c #946A4B",
"y. c #9C6B4B",
"u. c #8E7149",
"i. c #9A764C",
"p. c #836655",
"a. c #886A58",
"s. c #9C6D50",
"d. c #946C57",
"f. c #8E725D",
"g. c #967054",
"h. c #9D7353",
"j. c #9D735C",
"k. c #95725E",
"l. c #A16344",
"z. c #A16D4D",
"x. c #A66A45",
"c. c #A3724C",
"v. c #A7774B",
"b. c #A46D51",
"n. c #A66755",
"m. c #B66756",
"M. c #A47353",
"N. c #AB7555",
"B. c #AC7856",
"V. c #A4765A",
"C. c #AA7659",
"Z. c #A67A5B",
"A. c #AC7A5B",
"S. c #B17D5F",
"D. c #B47657",
"F. c #B16545",
"G. c #8E7569",
"H. c #987866",
"J. c #947671",
"K. c #BE646E",
"L. c #A57867",
"P. c #B27E61",
"I. c #B97864",
"U. c #C96C54",
"Y. c #C36E63",
"T. c #7E8460",
"R. c #939900",
"E. c #96841E",
"W. c #DC8F12",
"Q. c #E7970E",
"!. c #FFBE06",
"~. c #F3AD11",
"^. c #F7B813",
"/. c #CE822A",
"(. c #D68529",
"). c #D4A33C",
"_. c #FCCD00",
"`. c #FCD503",
"'. c #FFD708",
"]. c #FFE803",
"[. c #BB8258",
"{. c #9F8270",
"}. c #898975",
"|. c #AF8065",
" X c #B38262",
".X c #B88566",
"XX c #BC8B6A",
"oX c #BA876A",
"OX c #A48579",
"+X c #C08769",
"@X c #7D7C84",
"#X c #837E82",
"$X c #978986",
"%X c #908F94",
"&X c #929094",
"*X c #A99A9B",
"=X c #A89991",
"-X c #B59E90",
";X c #ADA09A",
":X c #A9A8AD",
">X c #B2B3B8",
",X c #A9ACB1",
"<X c #C2B5B8",
"1X c #C2C9A0",
"2X c #CBCACD",
"3X c #D1CDCC",
"4X c #DBD6DD",
"5X c #E2D8D1",
"6X c #DEDDE3",
"7X c #E4E8EC",
"8X c #FFFEFE",
"9X c #F3F2F0",
/* pixels */
"g y.=.y.t.e.l j.7.~ z ~ =.t.y.e.u.! z.r.^ *.j./ ..h.X. .V.k.j L ",
"s.g ~ M.s.^ ;.7.9.M.C.9.Q 0.M.c.h Q >.V.O.x.x.n.n.I.:.E I >.L.n.",
"|.l 9.y.v.Q 0.0.' N.B.o.Q  .w.v.@.B.*.8.M.Y.F.2.2.U.Y.K.Y.l.L.b.",
"=.M.y.g 0.w.x.D._ w.c.N.N.0.Y Y i.c.,.-.L.L.m.{ #.Q.P | U ' 3.C.",
"=.XXy.R W w.Y I ;.( ( e.j.t.*.-.r.!  .y.3.[ #.^.`.].`.Q./.@.n.n.",
"^ Q W V.e.V.y.y.H.H.H.a.p.C N k 1.5.q.N.] $.Q.!.].`.].^./.| ' w.",
"XX` 9.P.t.8.d.k.G.a.n t 4 - # +   > e e u b.[ J _.^.Q.W.H 3.0.e.",
"_ Q ` z j.H.OXJ.A m y y 9 : X   1 c q   s )./.K #.@.$.$.U.m.c.-.",
"o.w.0./ OX$X*X$Xm c y < O     0 n #X&X6 f k r J.{ D.3.G 4.V.u.W ",
"q.B.V.L.=X<X;XB y 9 < o o     8 }.@XZ 8 , f % b m.m.D.m.| h 8.h.",
"( Z.H.-X4X>XJ.9 9 : o         + c 0     }.=Xo   ~ >.>.n.m.N.e.t.",
"j g.G.5X9X>Xv < : o             X o 4 T.1X4   X , k.-.l y.D.Q ~ ",
"b.<.$X8X7X,X7 -                     $ 4 $     +   H.g.z g ' l.V.",
" XN ;X8X7X>X                      *   +   X   + + V 7.h.u.w.n.oX",
"W N J.8X6X2XO +                 &   O     +   2 3 z ;.V.h.^ ^ e.",
"5.6.n 6X2X3Xn                     +     o     p x / ` ` ^ 9.y.( ",
"_ ! t S 2X>X%X. X               . *   X = X @ R.z q.s.B.o.Q b.;.",
"[.t.k.@ &X:X:XZ                     X X   % d +.q. X .! M.B.:.Q ",
"^ ! N p.@ A &X%Xw $           . +     X + i E.*./ o.! g z..X0.` ",
"o.s.s.=.H.. 4 F D w O             X     i L q.y. .! Z.y.E ` ` ` ",
"w.XXz.q./ OXt   : 8 8 ;   X   X     * 3 a 9.P.oX;.^ P.A.Q ` ` N.",
"! ! o._ ! g.p.H.b 9 @     .     . < f ..*.-.;.>.( _ ` ;.N.y.( z.",
"q. .0.y.N.T ( 5.8.N V z r 5 t M N <.+.9.-.r.~ E z.b.` _ 0.;.Q R ",
"Z.W l c.c.O._ T O.v.XXj.l 8.|.g.1.O.W z.A.oXz.h x.n.r.0.g ^ XXN.",
"r.9.9.9.^ M. Xs.h A.M.( y.9.j 9.A.B.z.W b.z.z.9.W ( 9.V.[.^ W  X",
"( V.A.9.g 9.s.W Q 9.9.r.[.s.W 9.9.W Y ^ y.9.y.P.9.( ( 0.7.9.o.! ",
"W ( 0.( ( s.y.Y Z.9.Q ( 5.( =.=.9.;.r.C.;.R W 0.r.( 0.9.Y o.V.o.",
"A.0. .M.A.y.o.0.9. .w.y. .M.[.y.A.y.( ( ^ B.b.W  Xy.h.M.5.( e.o.",
"y.( o.M.y.g ! A.0.5.s.y.! 9.s.;.R r.z.y.Q M.z.Q y.q.! ( B.N. .( ",
"W ( ^ Q  .` 0.M. Xo.! o.( Y W ` g r. XS.^ I W ` g 0.( W M.Z.9.9.",
"c. XM.! 0.Z.y.W ! ( ^ y..Xc. .N.P.;.g I 0.y.c.Z.^ M.A.r.( Q Q ^ ",
"W Z.M.! 9.M.w.( Y V.r.^ M.9.g r.9.9.0.( z.` y.A.9.W 0.M.( ! w.s."
};
