/* XPM */
static char *_353beec50e74aa9f472af2d53ba2489qET0rYkwzkIgaoWi[] = {
/* columns rows colors chars-per-pixel */
"32 32 181 2 ",
"   c #5F360A",
".  c #663806",
"X  c #6D3A03",
"o  c #6C390A",
"O  c #703F1F",
"+  c #75430B",
"@  c #78470C",
"#  c #7B4D0F",
"$  c #754713",
"%  c #7C4B14",
"&  c #75451A",
"*  c #7C4A1A",
"=  c #6B4320",
"-  c #6F4821",
";  c #754524",
":  c #7C4A27",
">  c #7A4728",
",  c #7D4C2C",
"<  c #7E5625",
"1  c #7E562D",
"2  c #7C4733",
"3  c #7F4B32",
"4  c #7F4F38",
"5  c #7D5031",
"6  c #804F0A",
"7  c #88560F",
"8  c #804E13",
"9  c #825013",
"0  c #895512",
"q  c #8E5A17",
"w  c #85541B",
"e  c #89551E",
"r  c #8C5A1D",
"t  c #935C1E",
"y  c #95611D",
"u  c #9A621E",
"i  c #804B2D",
"p  c #845424",
"a  c #8D5C23",
"s  c #83522C",
"d  c #865C2A",
"f  c #925D23",
"g  c #814F30",
"h  c #845333",
"j  c #895636",
"k  c #845B33",
"l  c #8B5A34",
"z  c #85553A",
"x  c #8A573A",
"c  c #87593A",
"v  c #8C5C3B",
"b  c #915F3E",
"n  c #956225",
"m  c #9C6423",
"M  c #9F6825",
"N  c #97652B",
"B  c #9B652C",
"V  c #9D6A2B",
"C  c #9B7127",
"Z  c #8C6337",
"A  c #8F653D",
"S  c #916335",
"D  c #9A6732",
"F  c #966932",
"G  c #9C6934",
"H  c #93633C",
"J  c #9B653F",
"K  c #96693A",
"L  c #9C693B",
"P  c #9F7231",
"I  c #A36B27",
"U  c #A96D24",
"Y  c #A36D2C",
"T  c #AE6F28",
"R  c #AE7526",
"E  c #A77229",
"W  c #AC732D",
"Q  c #A67A2F",
"!  c #B0742E",
"~  c #A16D32",
"^  c #A26D3B",
"/  c #A57332",
"(  c #AC7432",
")  c #AF7936",
"_  c #A4753C",
"`  c #AB763B",
"'  c #AD7A38",
"]  c #B17731",
"[  c #B47B34",
"{  c #B97D37",
"}  c #B57D3B",
"|  c #BA7F3A",
" . c #865A42",
".. c #915F42",
"X. c #8E6343",
"o. c #946343",
"O. c #986646",
"+. c #976B46",
"@. c #9B6B45",
"#. c #94654B",
"$. c #99674B",
"%. c #936C4F",
"&. c #9C6C4B",
"*. c #9E704C",
"=. c #9E6552",
"-. c #9C6C54",
";. c #9E7353",
":. c #A16E43",
">. c #A06F4F",
",. c #A37344",
"<. c #A87540",
"1. c #A77947",
"2. c #A3734C",
"3. c #A77D4C",
"4. c #A97B4D",
"5. c #BE7E40",
"6. c #B37A43",
"7. c #A16E52",
"8. c #A47353",
"9. c #A97757",
"0. c #A67A53",
"q. c #AC7B56",
"w. c #A5755A",
"e. c #A9755B",
"r. c #AC7A5B",
"t. c #B17D55",
"y. c #B17E5F",
"u. c #AA7660",
"i. c #AD7C61",
"p. c #B68036",
"a. c #BB8235",
"s. c #B4813D",
"d. c #BC833C",
"f. c #C3853D",
"g. c #C2893D",
"h. c #B58143",
"j. c #BD8445",
"k. c #BE8442",
"l. c #BC8945",
"z. c #A78055",
"x. c #A5825D",
"c. c #AD835C",
"v. c #B38456",
"b. c #B48654",
"n. c #B08359",
"m. c #B3845A",
"M. c #B2825D",
"N. c #B3885B",
"B. c #BD8D5C",
"V. c #A78562",
"C. c #AD856B",
"Z. c #AC8B6B",
"A. c #B28162",
"S. c #B38264",
"D. c #B38363",
"F. c #B98764",
"G. c #B28C67",
"H. c #B38368",
"J. c #B78A69",
"K. c #BE8D6A",
"L. c #BC8D63",
"P. c #B78B70",
"I. c #BE8B70",
"U. c #B59475",
"Y. c #BE9275",
"T. c #BF9871",
"R. c #C28742",
"E. c #C68740",
"W. c #C18641",
"Q. c #C38944",
"!. c #C38A43",
"~. c #C48B48",
"^. c #C58C4D",
"/. c #CC934C",
"(. c #C0946D",
"). c #C59373",
"_. c #C99D70",
"`. c #C7997F",
"'. c #C7A079",
"]. c #C99A86",
"[. c #D7A992",
/* pixels */
"> -.o.O.o.+.j 2.b j h h ..$.&.#.=.X.+.o.z 4 o.l b >.v $.>.8., h ",
"2., h 2.&.h x H v 8.8.b z O.7.7.2 z H *.7.$.b j &.9...O i H &.&.",
"y.j A $.w.z &.#.o.i.A.#.j o.&.8.#.Z $ F q.y...i O.o.9.&.r.o.8.8.",
"j &.$.g $.-.w.u. .#.&.8.8.H d s r.*.# / ` t.e.9.v g o.>.&.h O.9.",
"H D.8.j g #.h h +.c v +.8.+.v h #.K 6 [ E ^ >.8.c o.o.o.h v o.$.",
"v , s 8.v 2.&.o.*.X.A c c &.8.&.r.K 7 a.W.6.,.K &.8.O.8.O.&.v o.",
"S.O.>.K.n.v.b.1.h.3.c.0.+.%.-. .C.p y a.d.| ` P D.8.h ..8.&.v +.",
"z ..O.d 4._ _ _ z.,.N.(.J.`.[.].Y.& M g.R.~.s.C 8.9.O., r.r.&.j ",
"v @.o B ^.Q.{ | a.p.] R ( ( ( ( W W ] { d.f.g.k.Y ` ,.c  .-.-.z ",
"O.q.* N j.k.d.f.f.d.d.g.d.k.j.j.p.d.d.d.d.d.s.d.^.B ^ c.X.1 ..-.",
"c q.p e } Q.R.| d.a.d.d.k.j.j.j.f.d.d.d.d.d.d.d.5.5.` ` 4.H j 7.",
"> v * + V { | { a.a.d.d.d.d.d.d.d.s.d.d.s.d.d.f.5.f.p.W Y ` J i ",
"-.A s + V } W.Q.!.!.W.k.W.k.W.W.d.s.d.a.d.s.a.{ W.f.a.d.[ G :.8.",
"i.&.,.+ n ' [ ] [ [ [ [ { p.p.p.d.f.d.f.d.d.d.d.{ ~.f.f.~.^ L ).",
"z *.3.. 9 q m I W W W ] ] ] [ p.d.d.d.d.d.l.d.W.l.} f.| ~ L 2.X.",
"X.;.2.+ V m Y W s.s.d.W.W.g.d.g.k.d.d.{ d.d.d.d.l.s.Y I ^ ,.+.X.",
"v d p a ` E f.W.g.W.d.d.| R.5.| j.5.l.k.a.d.a.g.Q V _ F.o.g 9.b ",
"M.@.p 8 / ( d.[ [ [ ( E I f t f e n M p.g.a./.E P _ l o.e.w.H j ",
"i l < a h./ ~ V Y V y q 0 8 e _ S * 0 R g.g.G F 1.L j 3 7.y.O.j ",
"v 2.S p ^ F G G e r B ( f 9 S N.;.4.X R g.( L K.+.j y.7.g b O.l ",
">.r.Z $ F 2.v.t.a a / ' t $ Z G.C.0.@ E p.~ L.P...j y.u.z v ..:.",
"j H b H *.+.&.0.e n ( ' n $ k x.%.c.. _ V B.o.%.x ....b e.7...7.",
"+.h H 4.*.k c e.% f W W M % Z Z.= T.  S _.@.v h $.e.b l $.v g x ",
"i.h j &.*.X.#.u.@ Y ] W m % 1 U.A z.- '.c.C.*.= :.2.O.b > x ).u.",
"O.O.o.v ..8.r.M.@ Y ] U t 8 1 Z.r.).).j >.7.7.O.g v o.9.y.v h A.",
"o.w.9.A , v @.v + V [ W U w s x...j i j :...:.y...v b o.b o.b j ",
"c ..o.v v &.0.s # E W E t % < x...v ..r...i h O.$.b O.O.g H 8.o.",
"r.o.x r.9.>.+.& r V [ W u 8 d z.e.:.j O.x e.8.j y.>.>.7...c o.o.",
"&.x v 9.&.i s ; f B ~ V f 8 p O.j ..7.7.i 9.7.h *.O.j v r.8.b v ",
"h v c v v v O.l ,.<.,._ ^ l l ..> :.y.y.j g j b > O.c h 8.r.o.H ",
"-.D.8.v O.9.&.l i H H @.A.8...e.y...i i O.$.8.r.c 8.r.$.v h h v ",
"h r.8.s v 8.+.l v 7.o...w...2 =.:.....g 8.b O.8.O.h O.8.v j $.7."
};
