/* XPM */
static char *bGVmdA__[] = {
/* columns rows colors chars-per-pixel */
"32 32 233 2 ",
"   c #070116",
".  c #0C1415",
"X  c #3E1415",
"o  c #002015",
"O  c #182423",
"+  c #103326",
"@  c #2A2527",
"#  c #3C312A",
"$  c #393736",
"%  c #2F312E",
"&  c #463436",
"*  c #4C3230",
"=  c #6E3F21",
"-  c #4C152C",
";  c #0C403E",
":  c #36453C",
">  c #254037",
",  c #46443A",
"<  c #42402B",
"1  c #7B4C2C",
"2  c #794628",
"3  c #7D4933",
"4  c #7E5335",
"5  c #7E563D",
"6  c #7F5024",
"7  c #323D42",
"8  c #4A3541",
"9  c #443B48",
"0  c #553A47",
"q  c #493953",
"w  c #563D54",
"e  c #59264F",
"r  c #653949",
"t  c #6D3C56",
"y  c #733150",
"u  c #563761",
"i  c #1D585E",
"p  c #3C4B46",
"a  c #364542",
"s  c #3A5D44",
"d  c #324B54",
"f  c #2D5D72",
"g  c #216E76",
"h  c #474846",
"j  c #534E47",
"k  c #575748",
"l  c #584B5A",
"z  c #4B5150",
"x  c #665649",
"c  c #785C4D",
"v  c #685952",
"b  c #755053",
"n  c #756252",
"m  c #6A674F",
"M  c #5C4561",
"N  c #6A4867",
"B  c #705872",
"V  c #78766E",
"C  c #476B6B",
"Z  c #824E2C",
"A  c #8E462E",
"S  c #85532D",
"D  c #88572C",
"F  c #844E34",
"G  c #845333",
"H  c #895635",
"J  c #8B5A34",
"K  c #84553A",
"L  c #8C553A",
"P  c #845A3A",
"I  c #8C5B3C",
"U  c #835A36",
"Y  c #925D3D",
"T  c #935936",
"R  c #954C2C",
"E  c #AA5B3D",
"W  c #87663F",
"Q  c #9A643E",
"!  c #93623D",
"~  c #9A194F",
"^  c #992C5C",
"/  c #89385E",
"(  c #97305C",
")  c #89215E",
"_  c #A42A5A",
"`  c #A31967",
"'  c #90356D",
"]  c #A82A67",
"[  c #A73B72",
"{  c #A93171",
"}  c #C5397D",
"|  c #8C5E43",
" . c #855A47",
".. c #935D42",
"X. c #995E47",
"o. c #8A4B58",
"O. c #A15D46",
"+. c #8C6244",
"@. c #8C644A",
"#. c #866449",
"$. c #946343",
"%. c #996444",
"&. c #966A44",
"*. c #9D6C45",
"=. c #93644A",
"-. c #9B664A",
";. c #956A4C",
":. c #9C6B4B",
">. c #9E724A",
",. c #836C54",
"<. c #8A6B56",
"1. c #896B5A",
"2. c #936C53",
"3. c #9C6C51",
"4. c #966756",
"5. c #8F725C",
"6. c #9D7254",
"7. c #9C745A",
"8. c #977558",
"9. c #A16E4C",
"0. c #A26B48",
"q. c #A7754D",
"w. c #A26E51",
"e. c #A46F59",
"r. c #A47353",
"t. c #AA7454",
"y. c #AC7855",
"u. c #A3745A",
"i. c #A5795B",
"p. c #AC7B5C",
"a. c #A8775A",
"s. c #B27D5C",
"d. c #9A4172",
"f. c #8A4D65",
"g. c #A4556A",
"h. c #A84275",
"j. c #B3537F",
"k. c #AF4476",
"l. c #856B66",
"z. c #946A6A",
"x. c #8A7767",
"c. c #9D7A64",
"v. c #987665",
"b. c #8A7877",
"n. c #957674",
"m. c #A47A64",
"M. c #AB7C64",
"N. c #A77573",
"B. c #B27373",
"V. c #B0815C",
"C. c #9A856A",
"Z. c #978374",
"A. c #878872",
"S. c #AA856B",
"D. c #A6826B",
"F. c #B58363",
"G. c #B88667",
"H. c #A58676",
"J. c #B5867A",
"K. c #AF9375",
"L. c #B9A17D",
"P. c #C0927B",
"I. c #1A798B",
"U. c #357B88",
"Y. c #787D81",
"T. c #B73B83",
"R. c #C43C88",
"E. c #ED338C",
"W. c #9F5884",
"Q. c #BB4782",
"!. c #B65A89",
"~. c #AA508D",
"^. c #9B7A8D",
"/. c #BE6D97",
"(. c #B87287",
"). c #CC478A",
"_. c #D7458A",
"`. c #D94D99",
"'. c #D44D93",
"]. c #F74896",
"[. c #E65294",
"{. c #EA4A93",
"}. c #CC6C99",
"|. c #D7699F",
" X c #C77C9A",
".X c #CE7290",
"XX c #DC5FAB",
"oX c #F44EA7",
"OX c #EA5BA7",
"+X c #FA58AC",
"@X c #FD5CB3",
"#X c #FE5AB9",
"$X c #D86BA6",
"%X c #C875A7",
"&X c #D778AB",
"*X c #FD65A9",
"=X c #E375A9",
"-X c #FB67B5",
";X c #E778B6",
":X c #FD72BB",
">X c #FC78B7",
",X c #FF69C3",
"<X c #FC79C3",
"1X c #FF7AD9",
"2X c #1B8789",
"3X c #1FA2AA",
"4X c #6A8FA9",
"5X c #33C9D9",
"6X c #38FDFF",
"7X c #45C2D4",
"8X c #78FFFF",
"9X c #69CCC7",
"0X c #BA8A85",
"qX c #AC9585",
"wX c #B89584",
"eX c #AF8B94",
"rX c #BAA196",
"tX c #B3A284",
"yX c #B684A7",
"uX c #9DB8B1",
"iX c #CB999B",
"pX c #C98C91",
"aX c #D38AAA",
"sX c #CD8DA9",
"dX c #F783BF",
"fX c #ED81BF",
"gX c #CDA1A9",
"hX c #E0A5A9",
"jX c #FE81C2",
"kX c #FA8AC1",
"lX c #FF80D5",
"zX c #96FFFF",
"xX c #E0C8C8",
/* pixels */
"Z *.$.*.%.%.H 0.=.K 3 K I =.:.%.9.H :.=.U 1 @.#.Y w.Y $.9.*.6 D ",
"3.2 K r.:.U I $...w.a.=.I $.w.w.2 L I 9.:.r.I P 3.a.I 2 1 I &.*.",
"M.K =.r.6.U ;.+.Q s.s...L =.:.a.3.p.I $.t.V.J D @.+.7.7.M.4.r.m.",
"..3.-.4 &.>.q.V.T Q 0.q.t.$.G 4 a.:.I G t.q.q.q.Y 1 ..w.:.K X.a.",
"! F.9.S D Q S Z ! I T 0.t.&.P P =.4 =.&.$.G 0.9.Y %.Q ! Z Y X.! ",
"J S J 6.+.i.6.! 8.;.+.L I :.i.>.t.I ! u.4 +.@.+.;.3.-.t.%.0.! T ",
"F.! ;.S.x.x.Z.x.,.<.c.e...:.r.U -.-.I ;.#.M.v.1.qXC.,.5.8.=.I %.",
"| U #.c v , h d x c v.e.F L r.*.2 y.G.@.c.x.n x , h k n H.m.4.I ",
"Y ;.m t { R.R.} ' l z l.8.I T P x.@.m.n s a l b d.d.o.t 8 V c.D ",
",.n._ _.OX[.+XoX_.l : * L.%...tXl.z., z l T.} ).`.).[.E.k.t b v.",
"z.{ E.OXjX>X:X1X|.% > C.;.;.K b eXn.m a M '.,X#X-X*X*X-X#XoX[ y ",
"o.( %X%X}.>X>XkXN O , *.A #.n.y N.=.H.& 7 N %XkX>X>X>XjX$XOX} ^ ",
"n.4.c N./.;XdXN r % m u.3 Z.- [.8.! 2.x 8 w w ^.jX>X-X}.yXrXiX.X",
"m.:.R U iX&X~.y ].& k n.A.r ] -XK.p.,.v ( ).) w /.fX|.sXJ.| 3.G.",
"U *.q.&.B.!.) +X-Xh % j > ( ].$XF.:.C.h '.,X@X' q aX=XhX8.D E X.",
"T q.W 1 B.f.Q.1X&X$ p p d k.E.yXI 2 wX& ;X<X-X+X( [ aXeXP Q *.c ",
"..I +.M.N.h.XX1Xg.$ 9 , h 0 9 eXM.e.A.+ /.<X<X<X#X` j.hXP 4 >.%.",
"M.>.&.r.-.g.}.$Xq o # + + a # ^.3 K.h $ B kX-X<X,XQ.g.pXi.i...L ",
"K G H Y %.X.B.pX4X2X. Y.9Xi @ n 8.A.& d.u %XdX|.}.(.o.B.7.F.0.T ",
"P r.*.T 9.3.<.wXzX5X  uX8XI.O x.rXp d.@X{ ~.=XeXpX0XJ.P.4 ..X...",
";.G.t.G :.c.,.x.5X7X  U.6XU.# f l.9 ~.lX-X] .XxX@.#.M.a.4 L ..w.",
"K I %.L | 2.<.x.g f e d 3Xf 8 % h.[ W.kX=X] y gX5 U =.I a.w.L w.",
"$.S ! t.:.P +.2.l.. f.8 + d h & -X`.Q.}.(.pXb Z.:.r...L -.$.F U ",
"y.J D &.*.! J J O.A.X - j < : z ~.&X~ B.0XqXJ.x.0.t.X.-.2 $.G.t.",
"*.%.$.! P r.F.r.1 i.S.n # k Y.7 n.rX1.H.7.3.t.Y F Y $.a.p.P G F.",
"I r.p.! 2 $.:.G D $.#.v.l.j z $ H.<.z.m.=.-.X.G.%.Y I %.! $.%.P ",
"U I %.I I 9.:.S s.I 4 #.5.n x b.M. .7.m.=.F F -.=.I :.$.S %.r.$.",
"p.%.I a.p.:.I =.Q H 6.;.<.H.C.qXp.%.K L %.w.u.G s.:.:.r.| P $.Y ",
"*.I Y r.:.1 U p.! %.*.$.P @.7.#.Z 0.q.9.H r.:.G 3.&.G I a.a.I I ",
"G I P K I $.%.r.s.$.L I U 4 P +.2 %.s.s.G H G I 2 $.I G r.y.$.$.",
"w.F.q.H -.a.:.G L G I r.F.t.J t.p.+.2 F $.-.t.s.I a.p.&.H G H I ",
"G a.u.U ! 9.:.I K i.&.I 0.I D %.2.=.=.L :.%.! y.$.S $.t.I U -.r."
};
