/* XPM */
static char *cmlnaHQ_[] = {
/* columns rows colors chars-per-pixel */
"32 32 232 2 ",
"   c #060E13",
".  c #3F111C",
"X  c #00271D",
"o  c #24201F",
"O  c #1E1B22",
"+  c #2E1A2E",
"@  c #1A2623",
"#  c #06352E",
"$  c #292924",
"%  c #332A23",
"&  c #363939",
"*  c #2C352F",
"=  c #501221",
"-  c #4B1924",
";  c #631636",
":  c #483838",
">  c #55343B",
",  c #482634",
"<  c #284635",
"1  c #3D4339",
"2  c #3F553E",
"3  c #47473B",
"4  c #514827",
"5  c #744423",
"6  c #7C4C2C",
"7  c #794727",
"8  c #7B552D",
"9  c #7E5434",
"0  c #7C5739",
"q  c #755432",
"w  c #373D42",
"e  c #4D3649",
"r  c #6C2E4A",
"t  c #66374E",
"y  c #7F2756",
"u  c #783455",
"i  c #7A2949",
"p  c #19545E",
"a  c #044A4F",
"s  c #394943",
"d  c #3B5246",
"f  c #344A51",
"g  c #2E687C",
"h  c #0C7072",
"j  c #494545",
"k  c #4A5747",
"l  c #565946",
"z  c #524B57",
"x  c #4E5553",
"c  c #595655",
"v  c #4E4D50",
"b  c #624B48",
"n  c #695C4F",
"m  c #6B465A",
"M  c #785052",
"N  c #5A6253",
"B  c #7A6448",
"V  c #6D655A",
"C  c #7A6557",
"Z  c #64624D",
"A  c #495164",
"S  c #764D6B",
"D  c #727564",
"F  c #696562",
"G  c #A5033C",
"H  c #824E2E",
"J  c #8C4E2B",
"K  c #844C37",
"L  c #845433",
"P  c #895636",
"I  c #855A35",
"U  c #845739",
"Y  c #8B543B",
"T  c #86583A",
"R  c #8C5C3B",
"E  c #8E5F32",
"W  c #915D3D",
"Q  c #9B5A3B",
"!  c #935537",
"~  c #845029",
"^  c #A0593B",
"/  c #8B623D",
"(  c #896A3C",
")  c #94623D",
"_  c #936638",
"`  c #9E703E",
"'  c #A1633B",
"]  c #A16B3D",
"[  c #9E1F54",
"{  c #892F50",
"}  c #9F216A",
"|  c #993A65",
" . c #8F3476",
".. c #B92F73",
"X. c #A53874",
"o. c #BA3679",
"O. c #A22A74",
"+. c #8D5C43",
"@. c #875947",
"#. c #925D42",
"$. c #955B4B",
"%. c #9C5748",
"&. c #985A52",
"*. c #984059",
"=. c #8D6342",
"-. c #8A6648",
";. c #936343",
":. c #996545",
">. c #9B6B44",
",. c #95654A",
"<. c #9A664A",
"1. c #956A4B",
"2. c #9C6B4B",
"3. c #936C41",
"4. c #9D714E",
"5. c #96714B",
"6. c #896956",
"7. c #9D6C52",
"8. c #966658",
"9. c #86755E",
"0. c #9E7252",
"q. c #98745B",
"w. c #A16E4D",
"e. c #A06249",
"r. c #A4744D",
"t. c #A36C53",
"y. c #A46656",
"u. c #A37353",
"i. c #AA7354",
"p. c #A4745A",
"a. c #A47C59",
"s. c #AC7B5B",
"d. c #AA7757",
"f. c #B27C5B",
"g. c #94446D",
"h. c #9D456E",
"j. c #895A6A",
"k. c #974575",
"l. c #934A7A",
"z. c #A84A7A",
"x. c #B64F74",
"c. c #877967",
"v. c #947662",
"b. c #987967",
"n. c #837C73",
"m. c #987371",
"M. c #926968",
"N. c #A77864",
"B. c #B67A66",
"V. c #AE6C75",
"C. c #C5487C",
"Z. c #C37968",
"A. c #C57D78",
"S. c #CA6C7E",
"D. c #518060",
"F. c #768A7E",
"G. c #9F8054",
"H. c #A1835F",
"J. c #968474",
"K. c #958264",
"L. c #A3836A",
"P. c #A88567",
"I. c #B38362",
"U. c #B78769",
"Y. c #B68B77",
"T. c #B89379",
"R. c #AE8C70",
"E. c #CD826B",
"W. c #0F6580",
"Q. c #787D80",
"!. c #B93680",
"~. c #D33C81",
"^. c #BF4181",
"/. c #A94E89",
"(. c #A87688",
"). c #B87B8A",
"_. c #B77793",
"`. c #B06790",
"'. c #DA4994",
"]. c #D14A90",
"[. c #E85788",
"{. c #E64897",
"}. c #F2599C",
"|. c #C97A89",
" X c #CA6095",
".X c #DE6998",
"XX c #D46D94",
"oX c #E9779B",
"OX c #F946A8",
"+X c #E95AA8",
"@X c #F259A5",
"#X c #FD55BA",
"$X c #EF4DAC",
"%X c #C878A2",
"&X c #D976A9",
"*X c #DE6BA2",
"=X c #E764A1",
"-X c #F968AD",
";X c #FE63BC",
":X c #FD68B9",
">X c #EF71B0",
",X c #FC74B9",
"<X c #E769B8",
"1X c #FF5AC1",
"2X c #FD6CC3",
"3X c #FD77C6",
"4X c #FF68D1",
"5X c #F76ECA",
"6X c #2F9399",
"7X c #1D89A5",
"8X c #6D908B",
"9X c #35BFDC",
"0X c #29DCD6",
"qX c #32DDF7",
"wX c #57D7E0",
"eX c #5AFFFF",
"rX c #B38E8A",
"tX c #A59EA6",
"yX c #96A1A5",
"uX c #B4AEA4",
"iX c #9A9D8B",
"pX c #C08885",
"aX c #C88296",
"sX c #C99594",
"dX c #D78A94",
"fX c #CF85AE",
"gX c #E981B6",
"hX c #FB87C9",
"jX c #FF88D4",
"kX c #E988CB",
"lX c #98FFFF",
"zX c #A2FAFF",
/* pixels */
"H 2.W 2.;.:.I 2.R I L P W 2.2.W w.P 2.;.P 6 ;.R ;.u.;.<.t.t.K @.",
"w.7 L u.2.P R / ;.u.u.W L ;.w.t.5 Y #.2.2.2.R Y 2.a./ 5 6 +.<.2.",
"s.H ;.2.u.I 2.;.;.H.I.;.P R <.d.<.s.R ;.s.f.P L ;.=.4.0.a.-.1.a.",
"W w.2.H :.2.u.a.L =.4.a.s.:.L L u.2.) L s.u.u.u.R H ;.r.u.I 3.a.",
"#.I.0.T L ,.L 9 ;.=.R :.u.<.P P ;.L ;.;.;.L 2.t.Y <.;.W H W ) :.",
"T L L u.=.a.0.=.1.1.=.I I 1.u.1.u.R ) u.L R #.I 7.t.<.7.:.w.! W ",
"U.,.<.N.1.=.=.U / 3.u.a.;.2.p.R ;.;.R :.;.s.w.#.N.q.0 -.u.:.P :.",
"T T T 9 p.,.u.T.U.4.0.2.6 T u.<.5 s.U.;.2.R P I c.c.6.B R.P.1./ ",
"_ >.1.c.D k 1 k d d k c.v.#.#.! ) Q / ` Q M n.V 1 j m m : N K.~ ",
") H.J.> r | | X.O.k.m 1 k c.6.Y.T.U 1.8 s.6.x z g.C.~.].o.u M b.",
"6.j.i C.$XOX$X$X#XOX'.k.c s : m.M.j.8.0 0.l & j OX@X2X#X1XOX..j.",
"j.| {.OX2X3X3X3X;X4X:X/.j < D M.(.b m.-.=.6.s @ `.jX3X5X5X:X=X[ ",
"G C._.%X X:X,X>X,XgXS f * N K.P.).{ M B Z.N.x $ & _.,X-X.X_.rX|.",
"A.B.&.@.).&X>X2XrXm e S , 9.6 _ pX[.; c.Z.Y.3 : | u %XoX|.N.,.U.",
"q 5.w.#.$.|.&XjXz y ~.+Xi m.-.E Y.[..., rXJ.1 : >Xo.g._.sX=./ ^ ",
"%.w.>.8 Y A.aXk. .+X4X4X/.m 6.) 6.=XOX .# < e * 5X5X} h.rX+.2.( ",
"%.! ' r.q.sXk. .}.:X3XgX(.% uX_ I.aX .S M 3 k e  XjX$X} rX0 i.-.",
"P.1.>.r.5.V.| ].,XjX2XhXM @ 9.d.K J.w f # $ 3 X u gX=X{ V.0.;.L ",
"-.q P _ / $.{ [.&X<XjX%Xt t > J.8.4 % p 6X3 . a A (.dXN.R.U.) ! ",
"+.t.w.) 1.P.y.V.(..XkXl.O.'.t D.uXB o W.zXtX  9XzXtXB.4.7 +./ ' ",
"e.B.i.E ( q.1.%.7.aX/.O.5X2Xh.< 8Xb @ 7XeX8X  qXwXyXB.i.Y 6.=.' ",
"L W ) P =.:.2.i.:.v.u o.3XkXz.*.S j : g 0Xp + 6Xh iX^ ^ p.8.T >.",
"_ I R 0.0.R Y W ;.@.8.V.XXfXX.@X$Xo j v a e g.X D rX! J 0.$.Y I ",
"d.P P 7.q.=.=.0 <.1.T.R.8./.!.<Xx.z f 3 : - = n ,.5.] _ q ! E.G.",
"2.;.;.;.R u.I.w.5 s.d.@.8.8.M.pXc v Q.v & n b.-.9 +.;.i.I.P L I.",
") u.s.;.7 ;.2.L I :.;.7.U.y.@.8.D : F c V J.1.I.:.R / =.;.;.;.P ",
"I W ;.R R 2.2.L s.;.L T $.;.+.;.J.C q F 6.@.I ) ,.R :.:.L ;.u.;.",
"s.;.R i.s.2.#.;.;.;.7.2.W w.s.:.q.L.v.v.-.0.e.! B.2.4.u.) Y ;.R ",
"2.R #.u.2.6 I s.<.,.t.2.~ / r.) L ;.p.0.P f.w.J 4.:.L Y s.u.W R ",
"L R R P ) +.:.u.s.#.L P P ~ P ;.5 2.d.I.P 7 ! W 7 :.R L 0.s.;.;.",
"2.U.u.P ;.s.2.L I P T u.U.r.P 7.f.W H H :.<.7.I.R u.s.2.R P I Y ",
"9 i.u.P ) u.<.R L d.2.P u.;.H 7.<.;.:.L w.<.,.N.;.L ;.u.R P 2.2."
};
