/* XPM */
static char *c29sKyUyODElMjk_[] = {
/* columns rows colors chars-per-pixel */
"32 32 124 2 ",
"   c #6F3E1E",
".  c #754424",
"X  c #764525",
"o  c #774626",
"O  c #7A4728",
"+  c #794828",
"@  c #7A4929",
"#  c #7B4A2A",
"$  c #7C492A",
"%  c #7D4A2B",
"&  c #7C4B2B",
"*  c #7E4B2C",
"=  c #7D4C2C",
"-  c #7E4D2D",
";  c #7F4E2E",
":  c #804D2E",
">  c #804F2F",
",  c #824F30",
"<  c #815030",
"1  c #835031",
"2  c #825131",
"3  c #835232",
"4  c #845132",
"5  c #855233",
"6  c #845333",
"7  c #865334",
"8  c #855434",
"9  c #875435",
"0  c #865535",
"q  c #875636",
"w  c #885536",
"e  c #895637",
"r  c #885737",
"t  c #8A5738",
"y  c #895838",
"u  c #8B5839",
"i  c #8A5939",
"p  c #8B5A3A",
"a  c #8C593A",
"s  c #8D5A3B",
"d  c #8C5B3B",
"f  c #8E5B3C",
"g  c #8D5C3C",
"h  c #8F5C3D",
"j  c #8E5D3D",
"k  c #8F5E3E",
"l  c #905D3E",
"z  c #915E3F",
"x  c #905F3F",
"c  c #925F40",
"v  c #916040",
"b  c #936041",
"n  c #926141",
"m  c #936242",
"M  c #946142",
"N  c #956243",
"B  c #946343",
"V  c #966344",
"C  c #956444",
"Z  c #976445",
"A  c #966545",
"S  c #976646",
"D  c #986546",
"F  c #996647",
"G  c #986747",
"H  c #9A6748",
"J  c #996848",
"K  c #9B6849",
"L  c #9A6949",
"P  c #9B6A4A",
"I  c #9C694A",
"U  c #9D6A4B",
"Y  c #9C6B4B",
"T  c #9E6B4C",
"R  c #9D6C4C",
"E  c #9F6C4D",
"W  c #9E6D4D",
"Q  c #9F6E4E",
"!  c #A06D4E",
"~  c #A16E4F",
"^  c #A06F4F",
"/  c #A26F50",
"(  c #A17050",
")  c #A37051",
"_  c #A27151",
"`  c #A37252",
"'  c #A47152",
"]  c #A57253",
"[  c #A47353",
"{  c #A57454",
"}  c #A77455",
"|  c #A67555",
" . c #A77656",
".. c #A87556",
"X. c #A97657",
"o. c #A87757",
"O. c #A97858",
"+. c #AB7859",
"@. c #AA7959",
"#. c #AB7A5A",
"$. c #AC795A",
"%. c #AC7B5B",
"&. c #AE7B5C",
"*. c #AD7C5C",
"=. c #AF7C5D",
"-. c #AE7D5D",
";. c #AF7E5E",
":. c #B07D5E",
">. c #B17E5F",
",. c #B07F5F",
"<. c #B27F60",
"1. c #B18060",
"2. c #B38061",
"3. c #B28161",
"4. c #B38262",
"5. c #B48162",
"6. c #B48363",
"7. c #B68565",
"8. c #B78666",
"9. c #B88767",
"0. c #B98868",
"q. c #BB8A6A",
"w. c #BC896A",
"e. c #BD8C6C",
/* pixels */
"- L n L A A q ( n 6 3 q j A Y B Y y R n y - A j j ( j L R R - r ",
"^ + q [ L y j j j ( { n q A ( ^ . d x ( L R y y Y #.n   - n R R ",
"1.3 n R ( y R A n 1.1.n q j L { L #.j B { 7.y 6 B n { ( *.A ( { ",
"d ( L > L R ( #.q B R o.#.A 3 3 #.R x 3 #.{ { [ j - A ( ( q A { ",
"j 7.R q q A 3 > A d y A ( L y y n 6 L B n 3 R ^ j A n n & j A G ",
"d 3 q { n o.( n ^ L A d r L #.R { j j { 6 n x q L ( G { A R j x ",
"7.n G 1.Y j j y n j [ #.n R { y A A j G n %.R n #.L q j R L y L ",
"y y y r ( 3 n e.,.q j R - q [ L . #.9.j L j y 6 n R n - *.*.R y ",
"A L L 3 B j B j R x y j B j y j n n n G x 3 y #.r y A x y Y ^ 6 ",
"B *.[ j L 1.^ > q L A R 7.^ d ,.%.y j n ( L #.( A L { [ j 3 n R ",
"j *.L d > [ ^ ^ n n 3 j { n + j o.y R y n 6 #.R q j n L ( A n L ",
"& y j ( G d 3 A R 3 r n 6 n o.A q j ( y n & j y A R j 3 A R d > ",
"( y q A *.x q d A A ,.[ + d *.#.> B y x 7.*.y 3 L #.Y 6 r j G o.",
"*.R n - L A [ { 3 ,.1.G A j 3 x ( #.q y 1.7.A G r x A ^ L x R e.",
"6 R [ x n L R G 3 R n n 6.{ r A #.R A d n j ( { n q n { ^ x j j ",
"n { n y 6 L y 6 ( x d G L d q x j . { R B > o.n j q d j q n R n ",
"j q A o.o.{ ( y j L ( o.6 ( %.L 1.( q L L ( d q ,.} ! +.l , / V ",
"1.L L [ G q j { L d L y A L 1.R + R { ^ B ( R A ! o.t r X...c 7 ",
"y q q x n 6 y #.o.n B r B q j j 3 ( 1.A y d x 3 6 l 7 $ / <.V l ",
"j ( R x R ( A y j n y ( A n q R R y y r L n L R x t :.I : c c l ",
"L 7.{ y B o.R j j n y #.{ ( j [ %.y q y ( A { 7.z 7 <.+.t l c ! ",
"6 j j j x A G R ^ y d r R x A y L R ( n y 3 j L 7 l l z ..! 7 ! ",
"G y n { ( j y n d 3 n 3 y j { A + n A B y A x 3 ! X.l 7 I c 7 t ",
"#.q q R R B n q A #.6.*.+ n { ( j n q Y { q.A + I / I c : t w.+.",
"L n A j y ( 1.( + %.{ j Y n - A +.:./ , ! ! ^ V 7 l B o.*.d q 1.",
"x [ %.n - n R q q n x R 1.R q j c 7 , t I c ! <.B x x B n n n f ",
"y x B f j R R 3 *.n 6 d n n n n c l F +.c 7 7 V G f L G 3 n [ B ",
"*.n j { #.L n A G j Y R n R *.R +.! t c t +./ 7 &.Y ^ [ n d B n ",
"R y x { R - q *.L n R R r x / c : I ! ! 7 ..! 7 ( A 6 j o.{ x d ",
"q j y y j j n ( &.n r j r > r B $ V <.<.t , 7 c - A y 3 ( #.B n ",
"R 6.{ y A #.Y q r y d ^ 9.( l [ :.c $ $ V G / &.d ( #.L d q r j ",
"3 o.( q n [ L y 6 { G d / B > Y V V V t / x G o.A 6 A [ j q G ^ "
};
