/* XPM */
static char *dXA_[] = {
/* columns rows colors chars-per-pixel */
"32 32 198 2 ",
"   c #140F0C",
".  c #19160F",
"X  c #17120E",
"o  c #23190D",
"O  c #241E1E",
"+  c #2D221E",
"@  c #272A27",
"#  c #322721",
"$  c #302825",
"%  c #322D29",
"&  c #35312E",
"*  c #343433",
"=  c #373A34",
"-  c #3C3C3B",
";  c #3A3937",
":  c #6A3919",
">  c #413229",
",  c #47362E",
"<  c #443932",
"1  c #433D39",
"2  c #3E403F",
"3  c #4B493A",
"4  c #564535",
"5  c #754424",
"6  c #794727",
"7  c #7A4728",
"8  c #7C4B2B",
"9  c #714926",
"0  c #664D3B",
"q  c #714B34",
"w  c #7F5135",
"e  c #7C543A",
"r  c #3D3E42",
"t  c #453E42",
"y  c #423F4A",
"u  c #3D4444",
"i  c #444343",
"p  c #484443",
"a  c #474840",
"s  c #4B4B45",
"d  c #444649",
"f  c #464A4A",
"g  c #4C4C4C",
"h  c #5A4C43",
"j  c #544C4C",
"k  c #584F4A",
"l  c #514A44",
"z  c #4C514D",
"x  c #5B514A",
"c  c #55514E",
"v  c #474D51",
"b  c #4B4F52",
"n  c #4E5154",
"m  c #4C545A",
"M  c #545454",
"N  c #5A5452",
"B  c #565957",
"V  c #585A57",
"C  c #54565A",
"Z  c #545B5C",
"A  c #5B5B5B",
"S  c #604E44",
"D  c #645349",
"F  c #7D5942",
"G  c #655A54",
"H  c #625D5A",
"J  c #5E625C",
"K  c #62615D",
"L  c #6D665C",
"P  c #7B675E",
"I  c #525F65",
"U  c #5A6463",
"Y  c #656665",
"T  c #6A6664",
"R  c #686D67",
"E  c #656669",
"W  c #69666B",
"Q  c #66696C",
"!  c #6B6C6C",
"~  c #726663",
"^  c #6F716F",
"/  c #74716C",
"(  c #6E6D71",
")  c #726D73",
"_  c #6D7174",
"`  c #737474",
"'  c #7E7C78",
"]  c #814F2E",
"[  c #88522E",
"{  c #975A2E",
"}  c #824F30",
"|  c #845333",
" . c #895636",
".. c #8C5A36",
"X. c #81563C",
"o. c #895739",
"O. c #865A3C",
"+. c #8C5B3B",
"@. c #845936",
"#. c #915B34",
"$. c #915E3D",
"%. c #995D39",
"&. c #8E613F",
"*. c #93613D",
"=. c #9C633D",
"-. c #845F44",
";. c #8C5E42",
":. c #8A5D4A",
">. c #925D41",
",. c #8B6143",
"<. c #83624C",
"1. c #8B634A",
"2. c #946343",
"3. c #996646",
"4. c #9C6945",
"5. c #946649",
"6. c #9A6648",
"7. c #95694B",
"8. c #9C6B4B",
"9. c #846551",
"0. c #8F6552",
"q. c #8C6A52",
"w. c #8B6D5A",
"e. c #846959",
"r. c #926B53",
"t. c #9B6E53",
"y. c #986E58",
"u. c #976957",
"i. c #8F705B",
"p. c #9D7154",
"a. c #9B755C",
"s. c #92735F",
"d. c #A06641",
"f. c #A16E4D",
"g. c #A96D48",
"h. c #A36944",
"j. c #A3714D",
"k. c #AB714C",
"l. c #A26E50",
"z. c #A47353",
"x. c #A97756",
"c. c #A37659",
"v. c #AB7758",
"b. c #A57C5D",
"n. c #AB7A5A",
"m. c #AC7A57",
"M. c #B17F5E",
"N. c #896F60",
"B. c #8F7464",
"V. c #857868",
"C. c #8C796C",
"Z. c #867464",
"A. c #9C7A61",
"S. c #9B7C69",
"D. c #947867",
"F. c #877976",
"G. c #8E7B77",
"H. c #937B71",
"J. c #A87560",
"K. c #A27D64",
"L. c #AA7E62",
"P. c #B27F60",
"I. c #9B826C",
"U. c #8C847D",
"Y. c #9C8475",
"T. c #97867A",
"R. c #A2826C",
"E. c #AF886B",
"W. c #B48363",
"Q. c #B88767",
"!. c #BA8B6B",
"~. c #B78669",
"^. c #A48A7D",
"/. c #AB8E7A",
"(. c #A78876",
"). c #BC8D73",
"_. c #AD937C",
"`. c #B3917C",
"'. c #C28C66",
"]. c #C99878",
"[. c #C3977E",
"{. c #828081",
"}. c #948B84",
"|. c #9B8A80",
" X c #9D948F",
".X c #A38F84",
"XX c #AC9384",
"oX c #A89489",
"OX c #A5988D",
"+X c #B19786",
"@X c #B59983",
"#X c #A69790",
"$X c #AD9E97",
"%X c #B09E92",
"&X c #BDA494",
"*X c #B5A49C",
"=X c #C29E90",
"-X c #C9BCB4",
/* pixels */
"7 6.+.6.3.2.@.z.+. .[  .%.=.3.=.f. .8.2.+.8 3.o.2.8.$.d.k.h.| #.",
"z.6  .z.8.o.2.+.;.x.v.2.o.5.z.l.5 o.$.l.3.8.+.+.t.c.2.: 7 $.8.6.",
"Q.w &.8.z.+.8.2.2.b.R.2.X.:.t.a.6.m.+.5.c.W. . .,.<.c.p.L.7.c.c.",
"+.f.3.8 8.8.z.n.+.*.h.n.b.7.X.e z.8.+.| x.z.z.z.;.8 ,.c.t.| 2.v.",
"&.Q.8. .| 2.] | =...#.4.j.2. .[ 5.| 3.5.$.| 8.z.*.=.2.&.7 ..=.=.",
"+.w | z.2.n.z.2.j.8.*.....h.x.j.z.$.*.z.| +.2. .=.8.3.p.5.8.#.{ ",
"Q.*.5.W.8.&.+.+.9.9.a.p.5.8.j.+.2.5...5.2.n.8.+.W.7.F e.i.q. .4.",
" .+.+. .j.| 6.].|.U._.&X/.R.a.7.5 x.Q.*.3.+.+.| R./.(.C.oX+XA.O.",
"%.g.4.| r.H.~ t t d u u z ' $XT.u.>.%.d.>.F C.G.c 2 g f 2 i T / ",
"*.x.t.<.^.< p Z H M C C n 3 , P [.+.$.$.b.S.> i c V g A V V 3 s ",
"&.K.w.Y.# ; d R T ! ! ! f = ~ *X~.O.6.+.-.B.U.& j Y W ! ^ K 3 3 ",
"9 F _.4 G U.U.x T ` Y m C - < }.X.;.l.>.:.e.1 * j c E Q V L V.V.",
"f.&.R.a.I.q.0 _.g T C d A M & X R.s.:.0.=X,   n M n m Q x T.B.R.",
"W.*.&.w 7.&.W.).T i g ( W A ' = o T.#XT.< . J U R U n d N XXt.Q.",
"8 7.z. .7.&.z.c.K s Y Y W C _ ! ; @ * @ = z J B L ^ E v G Y.;.=.",
"7.p.7. .@.4.| O.s & A ) ( r E Z y C b B d i j j L ! C d $ C.5.#.",
"+.@.6.z.z.z.z...+.S.Z.Q C C M j t b - i 1 s A f U m F..Xy.| t.,.",
"W.8.8.z.6. .+.z.7.<.Y.x i A Y M g * g - g H C Q - H |.w.c.L.&.@.",
"+.|  .&.2. .+.x.c.,.<.0 h T Y B C b m u V c A _ s h B.q 8.!.&...",
"+.z.f.,.6.z.5.+.&.,.O.a.S.T.% b 1 d m v - x ; {.&XS.`.t.] ..*.*.",
"5.W.x...2.x.8.+.+.2.| p.A._.D  XC.% I t H %XS -X1.<.W.x...#.4.f.",
"| +.*.+.$.5.3.8.8.2.#.*.7.7.s.w./.> & O oX:.S.Y.O.+.*.&.j.f. .6.",
"7.o.2.z.f.$.+.2.>.7 3.] ] 2.p.,.X.XX+ #X<.2.2.e z.l. . .8.$.} >.",
"z. . .8.8.5.$.o.6.m.W.m.[ *.j.k. .(..XXXa.'.=.5 h.v.3.=.8 O.).J.",
"8.2.5.*.+.z.W.8.6 n.z.+.8.2.8 5.n.n.l.} l.l.f.6.} $.2.x.M.+.| W.",
"$.z.n.2.7 2.8.|  .2.*.6.W.f. .,.>.} } o.6.>.h.P.2.+.+.2.2.2.;. .",
" .+.5.+.+.z.f.| x.2.o.+.&.+.,.*.6.$.6.v.2.} | 6.6.+.6.3.| >.z.2.",
"n.2.+.x.n.6.&.2.5.+.8.8.+.z.W.6.v.f.o.$.+.n.l.| P.8.t.z.+.+.2.*.",
"6.+.$.c.8.]  .b.8.2.j.8. .5.l.$.} 6.l.f.| l.f.| f.5.| +.n.z.2.+.",
"| +.+. .+.&.2.z.n.2. .+.+.8 | 2.8 6.P.M.+.] | >.6 5.+.@.z.n.2.*.",
"8.Q.z.o.5.n.8. .|  .+.f.Q.j.>.z.P.$.7 ] 6.6.f.x...z.n.6.+.@. .+.",
"w x.z. .*.z.6...| z.5...t.2.8 6.>.6.6.o.f.$.8.m.5.| 2.z.+.o.6.8."
};
