/* XPM */
static char *_638592134253[] = {
/* columns rows colors chars-per-pixel */
"32 32 239 2 ",
"   c #331713",
".  c #2E2A22",
"X  c #353125",
"o  c #35332A",
"O  c #3C382D",
"+  c #372F2D",
"@  c #4C1C14",
"#  c #481715",
"$  c #521B19",
"%  c #581B18",
"&  c #4B1C0C",
"*  c #681E1D",
"=  c #5D231A",
"-  c #5E2B1D",
";  c #4C2D1E",
":  c #67221A",
">  c #652216",
",  c #752919",
"<  c #72311B",
"1  c #542B27",
"2  c #453328",
"3  c #59342A",
"4  c #463B34",
"5  c #652F25",
"6  c #782E27",
"7  c #693D2D",
"8  c #69362A",
"9  c #7C3524",
"0  c #793627",
"q  c #623A33",
"w  c #793230",
"e  c #3C4336",
"r  c #4D4A3C",
"t  c #474437",
"y  c #534D3C",
"u  c #7C452A",
"i  c #62463A",
"p  c #764935",
"a  c #4E4C42",
"s  c #534E42",
"d  c #57544A",
"f  c #5A5A54",
"g  c #674C44",
"h  c #665C4A",
"j  c #74564B",
"k  c #615E52",
"l  c #645A55",
"z  c #765B50",
"x  c #656355",
"c  c #6B6453",
"v  c #656458",
"b  c #6B665B",
"n  c #6E6C5C",
"m  c #6D6855",
"M  c #736E5F",
"N  c #736457",
"B  c #74715E",
"V  c #787658",
"C  c #6D6B63",
"Z  c #736E63",
"A  c #706F6C",
"S  c #6D7364",
"D  c #757363",
"F  c #75726A",
"G  c #7C7A6A",
"H  c #7C7668",
"J  c #7C7B73",
"K  c #787570",
"L  c #8A3B2D",
"P  c #833A27",
"I  c #8B3C32",
"U  c #913F2D",
"Y  c #84422A",
"T  c #97472D",
"R  c #844935",
"E  c #934432",
"W  c #964B33",
"Q  c #9A4735",
"!  c #9F5237",
"~  c #AC4D33",
"^  c #A64E3C",
"/  c #A44C37",
"(  c #A2533B",
")  c #AD5C3A",
"_  c #A65235",
"`  c #B05B3D",
"'  c #B55837",
"]  c #9E6037",
"[  c #AD643D",
"{  c #B6643D",
"}  c #8A5A46",
"|  c #955647",
" . c #A95944",
".. c #AC5F4B",
"X. c #8D654A",
"o. c #8D6956",
"O. c #9C6858",
"+. c #9D7157",
"@. c #996746",
"#. c #A86546",
"$. c #B56344",
"%. c #BC6B4B",
"&. c #B76847",
"*. c #B6714E",
"=. c #BB724C",
"-. c #BA7548",
";. c #A16653",
":. c #BC6C54",
">. c #BC7452",
",. c #BE7956",
"<. c #B67356",
"1. c #A5705E",
"2. c #847B68",
"3. c #9B7563",
"4. c #8B766C",
"5. c #AD7A67",
"6. c #B37A67",
"7. c #C3734C",
"8. c #C3794D",
"9. c #C9774C",
"0. c #C27452",
"q. c #C57A52",
"w. c #C67957",
"e. c #C06C4A",
"r. c #C87E65",
"t. c #BD815D",
"y. c #86866C",
"u. c #858472",
"i. c #8C8B74",
"p. c #8E8C7A",
"a. c #878975",
"s. c #938D75",
"d. c #928D7B",
"f. c #9A8B76",
"g. c #8C9277",
"h. c #93917B",
"j. c #98967A",
"k. c #9A8067",
"l. c #AB8569",
"z. c #A88B79",
"x. c #BB8A78",
"c. c #A39D7E",
"v. c #A39179",
"b. c #BC9777",
"n. c #B68767",
"m. c #9FA17C",
"M. c #A6A27F",
"N. c #CA855B",
"B. c #D3895C",
"V. c #CC8C64",
"C. c #C68767",
"Z. c #D28D6B",
"A. c #CB956E",
"S. c #D4926C",
"D. c #D79668",
"F. c #C69975",
"G. c #DA9C74",
"H. c #D99874",
"J. c #CC8F7C",
"K. c #E39974",
"L. c #DDA277",
"P. c #E3AB7C",
"I. c #E8A57B",
"U. c #969383",
"Y. c #9C9983",
"T. c #938F83",
"R. c #A29E84",
"E. c #A59D8A",
"W. c #9FA58B",
"Q. c #A5A484",
"!. c #ABA385",
"~. c #A5A58A",
"^. c #AAA58B",
"/. c #ABAB8C",
"(. c #A3A88A",
"). c #B0AB8B",
"_. c #B2AD91",
"`. c #B4B495",
"'. c #BBB593",
"]. c #BCB994",
"[. c #BBB499",
"{. c #BDBB9B",
"}. c #B4B799",
"|. c #B5AF91",
" X c #B5B9A0",
".X c #C09988",
"XX c #D9A686",
"oX c #DAB389",
"OX c #C1BB9A",
"+X c #D4AD96",
"@X c #E3AD84",
"#X c #E8A785",
"$X c #EBB385",
"%X c #ECB48B",
"&X c #E9B88C",
"*X c #E3B89C",
"=X c #E8BA95",
"-X c #F3BB91",
";X c #C3BBA5",
":X c #D4B3A4",
">X c #EAB6A0",
",X c #BCC198",
"<X c #C3C49B",
"1X c #DDC09E",
"2X c #EAC598",
"3X c #F4C29A",
"4X c #F4CB9D",
"5X c #FAC49D",
"6X c #F3D19D",
"7X c #F0C38C",
"8X c #C7C3A4",
"9X c #DAC6AD",
"0X c #EAC2A3",
"qX c #F4CCA3",
"wX c #F9CDA3",
"eX c #F8CAA7",
"rX c #F5D0A6",
"tX c #FCDBAE",
"yX c #F9D3AA",
"uX c #EBC8B4",
"iX c #FCD5B2",
"pX c #F7D9B8",
"aX c #E8D4BA",
"sX c #FCE3BC",
"dX c #F5E6BF",
"fX c #FBDDC4",
"gX c #F9DECB",
"hX c #EED8C1",
"jX c #F3E3C4",
"kX c #FCE4C5",
"lX c #FEE9C5",
"zX c #FDE5CA",
"xX c #FEEACC",
"cX c #F7E7C9",
"vX c #FFE5D1",
"bX c #FFECD3",
"nX c #FFF2D2",
"mX c #FEF8D8",
"MX c #FFF0CE",
/* pixels */
"fXkX*X:.#.L 8 x.H.;.1 N g.g.g.d.i.Z F t 4 F C n x l x f d . y ^.",
"cXxX*X*.8. .;.tX$XS.( = g J a.2.D Z l . a.Y.h.h.p.G B K v 4 d.8X",
"fXlX2X&.9.T ;.yX%XG.B. .- 1 l Z H C o y._.!.R.j.p.d.G F v r _.{.",
"cXlX*X0.%., F.tX=X@XN.q.%.P 1 q i + s 8X]./.(.j.i.h.y.n b r ~.8X",
"zXzX=Xe.< 1.fXyX6X-X#Xq.8.%._ E 5   f.<X{._.c.^.s.u.u.C v r ^.<X",
"cXbXXXP z.zXxXpXrX3X$XV.-.8.` ~ I % f.].].`.c.^.h.p.u.C v r /.{.",
"hX6.Y u hXvXkXdXwX3XP.K.8.0.$./ L $ z.<X`.[.!.~.j.i.G F b t /.[.",
"..5.A.( 5.vXdXiXrX=X$X#X0.0.&._ U $ f.OX[.[.c.~.h.p.2.F k s OX<X",
"gXmX=X&.9 :XnX6X4X@X@X#Xw.,.$.~ I & f.8X<X).Q.~.U.h.G n x O s G ",
"jXjX=X0.U +.vXyX3XXX-XD.{ q.$./ I @ 4 r 2._.(.R.p.u.H D s t d X ",
"dXxX*X&.~ | fX4X2X@XH.-.8.=.Q / w # b f O t i.R.i.i.n D r b U.D ",
"jXbX=X*. .0 *XtX7XP.,.0.0.` _ U # z U.u.J s o m j.G D v t u.p.H ",
"jXbX*XW P > p *X5XZ.%.w.&./ 6 % o./.j.j.H G x . r C F k t Y.R.s.",
"vX9X} 6 ( =. .6 r.K.%.! Y - i R.8X}.m.Q.f.i.G C o X d f d ).Q.M.",
"+.o.:XJ.=.9.8.Q 0 #.W L @ g 8X{.`.}./.!.c.s.i.u.n a X X c `.Q.Q.",
"x.bXmXoX&.0.=.` w 9 ,.<.: j ;X'.].[./.E.(.i.i.p.D C f . c ;Xj.!.",
"bXjXbX>X-.9.$.U W @XV.7.Q @ v.8X}.].'.c.M.s.d.d.B Z v r F OXQ.!.",
"kXcXxX0X&.&.E Y &X$XG.e.^ > i OX].]./.^.~.h.i.i.S Z b r C ,XQ.R.",
"lXfXvX=Xe._ 0 +XiX@XH.:.[ L $ 3.8X{./.(.E.p.g.u.S D v a c OXW.(.",
"lXgXlXA.&., .XzXqX$XS.q.` _ * 1 ~.}./.Q.j.p.i.u.Z M v r N OXR.~.",
"kXkXuXq.T } bXpX4X$XB.,.$.~ L # 2 V y.R.f.i.U.y.D n f s F ).).v.",
"kXvXXX%.9 +XbXfX0XP.N.>.$.~ P 1 5.,.7 y g.p.U.V S c k O h V F c.",
"kXlXG.) p aXkXiX4XP.8.q.$.^ : o.2X#Xr.7 k U.p.D A d y h l.oX2 D ",
"fXlXC.Q O.vXsXrX3XL.*.0.&.Q % b.7XD.8.%.5 n a.F x e l.I.X.2XC.o ",
"bXyX,.E E.bXyXwXwXB.7.%.' 9 q 2X-XD.>.$._ 1 l C t b.3XI.R F.K.] ",
"fXoX&.0 >XvXyXwX%XZ.>.&._ % 3.tX&XN.0.&._ p   r 8XtX-XH.@.b.N.-.",
"o.Y , 1.xXaXyX-X$XC.>.{ 6 1 1XqX@XN.>.&.~ P ;  XnX4X$XD.[ +.N.=.",
"gXXX, +XlXeXqX&X$XC.>.E $ z.tXeX@Xw.0.&.~ * z lXpXqX$XN.*.X.,.7.",
"xX>XP x.tX5X%XP.P.q.&.> 3.fXyXeXG.=.8.{ E # U.lXqXeX@X8.7.X.,.9.",
"nX#X! R &X$X$X$XV.8.W 8 aXiXwX=XS.>.7.) 6 4 9XpXyX5XP.=.9.p *.$.",
"xXZ.$.9 G.%X#XN.,.$.: z.lX4X4X&XS.>.&.E @ i.bXqXwX%XK.*.7.i *.! ",
"uX>.W 0 A.,.:.[ _ w 1 9XtXqX&X$XD.:. .> 3 aXtXeX2X$XG.<.$.8 #.0 "
};
