/* XPM */
static char *_638592172251[] = {
/* columns rows colors chars-per-pixel */
"32 32 239 2 ",
"   c #331713",
".  c #2E2A22",
"X  c #353125",
"o  c #35332A",
"O  c #3C382D",
"+  c #372F2D",
"@  c #4C1C14",
"#  c #481715",
"$  c #521B19",
"%  c #581B18",
"&  c #4B1C0C",
"*  c #681E1D",
"=  c #5D231A",
"-  c #5E2B1D",
";  c #4C2D1E",
":  c #67221A",
">  c #652216",
",  c #752919",
"<  c #72311B",
"1  c #542B27",
"2  c #453328",
"3  c #59342A",
"4  c #463B34",
"5  c #652F25",
"6  c #782E27",
"7  c #693D2D",
"8  c #69362A",
"9  c #7C3524",
"0  c #793627",
"q  c #623A33",
"w  c #793230",
"e  c #3C4336",
"r  c #4D4A3C",
"t  c #474437",
"y  c #534D3C",
"u  c #7C452A",
"i  c #62463A",
"p  c #764935",
"a  c #4E4C42",
"s  c #534E42",
"d  c #57544A",
"f  c #5A5A54",
"g  c #674C44",
"h  c #665C4A",
"j  c #74564B",
"k  c #615E52",
"l  c #645A55",
"z  c #765B50",
"x  c #656355",
"c  c #6B6453",
"v  c #656458",
"b  c #6B665B",
"n  c #6E6C5C",
"m  c #6D6855",
"M  c #736E5F",
"N  c #736457",
"B  c #74715E",
"V  c #787658",
"C  c #6D6B63",
"Z  c #736E63",
"A  c #706F6C",
"S  c #6D7364",
"D  c #757363",
"F  c #75726A",
"G  c #7C7A6A",
"H  c #7C7668",
"J  c #7C7B73",
"K  c #787570",
"L  c #8A3B2D",
"P  c #833A27",
"I  c #8B3C32",
"U  c #913F2D",
"Y  c #84422A",
"T  c #97472D",
"R  c #844935",
"E  c #934432",
"W  c #964B33",
"Q  c #9A4735",
"!  c #9F5237",
"~  c #AC4D33",
"^  c #A64E3C",
"/  c #A44C37",
"(  c #A2533B",
")  c #AD5C3A",
"_  c #A65235",
"`  c #B05B3D",
"'  c #B55837",
"]  c #9E6037",
"[  c #AD643D",
"{  c #B6643D",
"}  c #8A5A46",
"|  c #955647",
" . c #A95944",
".. c #AC5F4B",
"X. c #8D654A",
"o. c #8D6956",
"O. c #9C6858",
"+. c #9D7157",
"@. c #996746",
"#. c #A86546",
"$. c #B56344",
"%. c #BC6B4B",
"&. c #B76847",
"*. c #B6714E",
"=. c #BB724C",
"-. c #BA7548",
";. c #A16653",
":. c #BC6C54",
">. c #BC7452",
",. c #BE7956",
"<. c #B67356",
"1. c #A5705E",
"2. c #847B68",
"3. c #9B7563",
"4. c #8B766C",
"5. c #AD7A67",
"6. c #B37A67",
"7. c #C3734C",
"8. c #C3794D",
"9. c #C9774C",
"0. c #C27452",
"q. c #C57A52",
"w. c #C67957",
"e. c #C06C4A",
"r. c #C87E65",
"t. c #BD815D",
"y. c #86866C",
"u. c #858472",
"i. c #8C8B74",
"p. c #8E8C7A",
"a. c #878975",
"s. c #938D75",
"d. c #928D7B",
"f. c #9A8B76",
"g. c #8C9277",
"h. c #93917B",
"j. c #98967A",
"k. c #9A8067",
"l. c #AB8569",
"z. c #A88B79",
"x. c #BB8A78",
"c. c #A39D7E",
"v. c #A39179",
"b. c #BC9777",
"n. c #B68767",
"m. c #9FA17C",
"M. c #A6A27F",
"N. c #CA855B",
"B. c #D3895C",
"V. c #CC8C64",
"C. c #C68767",
"Z. c #D28D6B",
"A. c #CB956E",
"S. c #D4926C",
"D. c #D79668",
"F. c #C69975",
"G. c #DA9C74",
"H. c #D99874",
"J. c #CC8F7C",
"K. c #E39974",
"L. c #DDA277",
"P. c #E3AB7C",
"I. c #E8A57B",
"U. c #969383",
"Y. c #9C9983",
"T. c #938F83",
"R. c #A29E84",
"E. c #A59D8A",
"W. c #9FA58B",
"Q. c #A5A484",
"!. c #ABA385",
"~. c #A5A58A",
"^. c #AAA58B",
"/. c #ABAB8C",
"(. c #A3A88A",
"). c #B0AB8B",
"_. c #B2AD92",
"`. c #B4B495",
"'. c #BBB593",
"]. c #BCB994",
"[. c #BBB499",
"{. c #BDBB9B",
"}. c #B4B799",
"|. c #B5AF91",
" X c #B5B9A0",
".X c #C09988",
"XX c #D9A686",
"oX c #DAB389",
"OX c #C1BB9A",
"+X c #D4AD96",
"@X c #E3AD84",
"#X c #E8A785",
"$X c #EBB385",
"%X c #ECB48B",
"&X c #E9B88C",
"*X c #E3B89C",
"=X c #E8BA95",
"-X c #F3BB91",
";X c #C3BBA5",
":X c #D4B3A4",
">X c #EAB6A0",
",X c #BCC198",
"<X c #C3C49B",
"1X c #DDC09E",
"2X c #EAC598",
"3X c #F4C29A",
"4X c #F4CB9D",
"5X c #FAC49D",
"6X c #F3D19D",
"7X c #F0C38C",
"8X c #C7C3A4",
"9X c #DAC6AD",
"0X c #EAC2A3",
"qX c #F4CCA3",
"wX c #F9CDA3",
"eX c #F8CAA7",
"rX c #F5D0A6",
"tX c #FCDBAE",
"yX c #F9D3AA",
"uX c #EBC8B4",
"iX c #FCD5B2",
"pX c #F7D9B8",
"aX c #E8D4BA",
"sX c #FCE3BC",
"dX c #F5E6BF",
"fX c #FBDDC4",
"gX c #F9DECB",
"hX c #EED8C1",
"jX c #F3E3C4",
"kX c #FCE4C5",
"lX c #FEE9C5",
"zX c #FDE5CA",
"xX c #FEEACC",
"cX c #F7E7C9",
"vX c #FFE5D1",
"bX c #FFECD3",
"nX c #FFF2D2",
"mX c #FEF8D8",
"MX c #FFF0CE",
/* pixels */
"^.;X{.8X;X{.{.<XH X Z H d.Q.!.^.).R.~.Q.c.Y.M o ] *.>.7.7.$.! 0 ",
"y h._.^.~./.^.{.d s U.p.Y.Q.Q.j.M.Q.(.Y._.H 2 C.K.N.V.,.>.*.<.#.",
". t r r r r t y O t b y.Y.).'.{.].8XOX]./.V oX7XF.n.+.X.o.p 7 8 ",
"d v x m x v m k x s r t t d c m Z C m N K h l.X.] X.] -.9.9.9.$.",
"f F F n C Z A F n D D v f f X . r r a r a o h P.K.H.D.N.7.*.<.<.",
"x B G y.u.u.G 2.G H n B K s o f v b v v k f y l.5X-X$X&X@XI.L.D.",
"v G h.h.u.p.p.i.h.a.i.G C X a n D F D B C x d e F.tX4XqXwX5X%X$X",
"l p.s.i.s.h.h.h.U.p.g.j.r o S D B S C Z D S F c 4 8XxXpXrXyXwX2X",
"n h.g.j.^.^.~.(.Q.c.Q.m . C 4.p.p.i.a.u.y.V D F C r  XzXkXpXyXyX",
"C T.Q.).Q.c.!.c.Q.(.i.X v J p.a.d.g.i.p.T.U.d.a.k   ; z U.9XxXiX",
"F Y.R.^._._.[.[.)._.t d 2.4.g.i.f.s.p.p.a.p.T.n 3 p P * # 2 f.aX",
"4 u.[.].].[.[.[.<XG o K H j.c.^.M.Q.E.Y.g.g.h 3 ! _ ~ ~ Q 8 # 3 ",
"t X 2.8X,X].<X<X8Xs f u.d.Q.!.E.c.!.~.Q.c.y p %.$.&.&.&.' ) E : ",
"F k + y f.f.v.f.f.2 b U.j.M././.'./././.y.7 w.7.0.,.-.0.9.7.%...",
"Z C C +   % $ $ @ @ # z ^.`.|.].].].[. XV 6.#XD.D.N.N.w.%.0.:.<.",
"i.D H g 5 L L U E I w @ 2.<X].].}.'.8X(.; l.3X7X&X&X@X@XG.D.V.D.",
"d.2.D q E ~ / ~ ~ / ( U * E.].'.8XOX3.5 # 1 } b.2XiXqXwXeX-X&X@X",
"i.a.l 1 _ ` $.%.$.$.T ( 6 q 8XOXj.g $ : L P : * q 3.*XtXyXwX4X2X",
"g.J 1 P %.8.q.0.0.q.=.` ! 1 g j @ % L ( ~ ~  .Q 9 % 1 v.pXpX4X4X",
"h.g = %.8.-.8.0.w.{ 7.>.$.L @ 5 Q ) [ ) $. .$.{ ' ( 6 $ 3.pXxXtX",
"N =  .,.,.V.I.#X#XD.=.0.0.( P :.e.7.:.0.,.=.0.8.=.&.$.E % 7 z.9X",
"1  .N.N.#X$XP.P.@X-XH.,.%.%.T w.V.H.H.Z.B.N.0.<.-.>.>.0.&.W : 1 ",
";.D.G.@X-X3X3X-XoXXX@XL.Z.K.#.P @X&X$X$X$XP.P.L.B.S.C.V.q.9...6 ",
"H.&X&X&X6XqXyX6X4X3X2X7X5XC.9 w W @XiXqX4XqX4X3X5X%X$X$XP.V.0.( ",
"C.tXrXtXyXpXjXiX6XiX4XtX*X5 Q ` T Y +XzXpXfXiXyXwXwX3X@XoX$XB.[ ",
"8 ;.+.J.sXxXdXlXxXxXfX*XR  .q.*.$.W 9 .XbXnXkXpXyXyXrX4X&X#X#X:.",
"I  .E , 1.zXxXvX:X1.| 0 > &.8.q.-.$.^ , } +XaXvXbXxXpXqXwX$X$X,.",
"[ 0.q.%.< z.hX5.P Y ~  .P / =.&.-.%.%.$.Q 0 p O.x.uXxXlXiX&XG.A.",
":.*.&.w.:.P 9 ( &.0.&.*.Q 6 J.oX*X0X&XA.,.%.` T E 9 1.+Xx.R 9 9 ",
":X0X2XoX=XXXY A.&X*X*X*X*X} :XmXvXxXbXzXrXXXG.C.0.#., , L Q $.T ",
"kXxXxXlXxXbX6.6.mXcXxXbXnX9Xo.zXjXkXfXzXkXvXzXkXyXoXR XX0X@XV.>.",
"fXcXfXxXzXzXaX#.gXsXdXjXjXvX3.b.bXkXzXkXzXkXkXzXvXgXo.gXxXnXxXuX"
};
