/* XPM */
static char *_638592207795[] = {
/* columns rows colors chars-per-pixel */
"32 32 239 2 ",
"   c #331713",
".  c #2E2A22",
"X  c #353125",
"o  c #35332A",
"O  c #3C382D",
"+  c #372F2D",
"@  c #4C1C14",
"#  c #481715",
"$  c #521B19",
"%  c #581B18",
"&  c #4B1C0C",
"*  c #681E1D",
"=  c #5D231A",
"-  c #5E2B1D",
";  c #4C2D1E",
":  c #67221A",
">  c #652216",
",  c #752919",
"<  c #72311B",
"1  c #542B27",
"2  c #453328",
"3  c #59342A",
"4  c #463B34",
"5  c #652F25",
"6  c #782E27",
"7  c #693D2D",
"8  c #69362A",
"9  c #7C3524",
"0  c #793627",
"q  c #623A33",
"w  c #793230",
"e  c #3C4336",
"r  c #4D4A3C",
"t  c #474437",
"y  c #534D3C",
"u  c #7C452A",
"i  c #62463A",
"p  c #764935",
"a  c #4E4C42",
"s  c #534E42",
"d  c #57544A",
"f  c #5A5A54",
"g  c #674C44",
"h  c #665C4A",
"j  c #74564B",
"k  c #615E52",
"l  c #645A55",
"z  c #765B50",
"x  c #656355",
"c  c #6B6453",
"v  c #656458",
"b  c #6B665B",
"n  c #6E6C5C",
"m  c #6D6855",
"M  c #736E5F",
"N  c #736457",
"B  c #74715E",
"V  c #787658",
"C  c #6D6B63",
"Z  c #736E63",
"A  c #706F6C",
"S  c #6D7364",
"D  c #757363",
"F  c #75726A",
"G  c #7C7A6A",
"H  c #7C7668",
"J  c #7C7B73",
"K  c #787570",
"L  c #8A3B2D",
"P  c #833A27",
"I  c #8B3C32",
"U  c #913F2D",
"Y  c #84422A",
"T  c #97472D",
"R  c #844935",
"E  c #934432",
"W  c #964B33",
"Q  c #9A4735",
"!  c #9F5237",
"~  c #AC4D33",
"^  c #A64E3C",
"/  c #A44C37",
"(  c #A2533B",
")  c #AD5C3A",
"_  c #A65235",
"`  c #B05B3D",
"'  c #B55837",
"]  c #9E6037",
"[  c #AD643D",
"{  c #B6643D",
"}  c #8A5A46",
"|  c #955647",
" . c #A95944",
".. c #AC5F4B",
"X. c #8D654A",
"o. c #8D6956",
"O. c #9C6858",
"+. c #9D7157",
"@. c #996746",
"#. c #A86546",
"$. c #B56344",
"%. c #BC6B4B",
"&. c #B76847",
"*. c #B6714E",
"=. c #BB724C",
"-. c #BA7548",
";. c #A16653",
":. c #BC6C54",
">. c #BC7452",
",. c #BE7956",
"<. c #B67356",
"1. c #A5705E",
"2. c #847B68",
"3. c #9B7563",
"4. c #8B766C",
"5. c #AD7A67",
"6. c #B37A67",
"7. c #C3734C",
"8. c #C3794D",
"9. c #C9774C",
"0. c #C27452",
"q. c #C57A52",
"w. c #C67957",
"e. c #C06C4A",
"r. c #C87E65",
"t. c #BD815D",
"y. c #86866C",
"u. c #858472",
"i. c #8C8C74",
"p. c #8E8C7A",
"a. c #878975",
"s. c #938D75",
"d. c #928D7B",
"f. c #9A8B76",
"g. c #8C9277",
"h. c #93917B",
"j. c #98967A",
"k. c #9A8067",
"l. c #AB8569",
"z. c #A88B79",
"x. c #BB8A78",
"c. c #A39D7E",
"v. c #A39179",
"b. c #BC9777",
"n. c #B68767",
"m. c #9FA17C",
"M. c #A6A27F",
"N. c #CA855B",
"B. c #D3895C",
"V. c #CC8C64",
"C. c #C68767",
"Z. c #D28D6B",
"A. c #CB956E",
"S. c #D4926C",
"D. c #D79668",
"F. c #C69975",
"G. c #DA9C74",
"H. c #D99874",
"J. c #CC8F7C",
"K. c #E39974",
"L. c #DDA277",
"P. c #E3AB7C",
"I. c #E8A57B",
"U. c #969383",
"Y. c #9C9983",
"T. c #938F83",
"R. c #A29E84",
"E. c #A59D8A",
"W. c #9FA58B",
"Q. c #A5A484",
"!. c #ABA385",
"~. c #A5A58A",
"^. c #AAA58B",
"/. c #ABAB8C",
"(. c #A3A88A",
"). c #B0AB8B",
"_. c #B2AD92",
"`. c #B4B495",
"'. c #BBB593",
"]. c #BCB994",
"[. c #BBB499",
"{. c #BDBB9B",
"}. c #B4B799",
"|. c #B5AF91",
" X c #B5B9A0",
".X c #C09988",
"XX c #D9A686",
"oX c #DAB389",
"OX c #C1BB9A",
"+X c #D4AD96",
"@X c #E3AD84",
"#X c #E8A785",
"$X c #EBB385",
"%X c #ECB48B",
"&X c #E9B88C",
"*X c #E3B89C",
"=X c #E8BA95",
"-X c #F3BB91",
";X c #C3BBA5",
":X c #D4B3A4",
">X c #EAB6A0",
",X c #BCC198",
"<X c #C3C49B",
"1X c #DDC09E",
"2X c #EAC598",
"3X c #F4C29A",
"4X c #F4CB9D",
"5X c #FAC49D",
"6X c #F3D19D",
"7X c #F0C38C",
"8X c #C7C3A4",
"9X c #DAC6AD",
"0X c #EAC2A3",
"qX c #F4CCA3",
"wX c #F9CDA3",
"eX c #F8CAA7",
"rX c #F5D0A6",
"tX c #FCDBAE",
"yX c #F9D3AA",
"uX c #EBC8B4",
"iX c #FCD5B2",
"pX c #F7D9B8",
"aX c #E8D4BA",
"sX c #FCE3BC",
"dX c #F5E6BF",
"fX c #FBDDC4",
"gX c #F9DECB",
"hX c #EED8C1",
"jX c #F3E3C4",
"kX c #FCE4C5",
"lX c #FEE9C5",
"zX c #FDE5CA",
"xX c #FEEACC",
"cX c #F7E7C9",
"vX c #FFE5D1",
"bX c #FFECD2",
"nX c #FFF2D2",
"mX c #FEF8D8",
"MX c #FFF0CE",
/* pixels */
"9 #.8 $.<.G.$X2XrXpXaX3 >  .<.D.@X&XrXtX9X1 w ! [ :.N.A.0 T =.uX",
"( <.7 9.<.L.%X4XrXMXf.@ E %.>.S.%XwX4XlXz.> $.,.N.#X%XG.9 ..S.xX",
"$.*.p q.*.I.5XrXpX9X4 w ) 7.=.D.=XwXtXaX7 W 9.V.#X#X$X&XR Q @XbX",
"7.>.X.9.7.#XyXeXfXT.# Q ' 8.=.G.eXrXfX3.> &.q.P.@X&X5XtXx.L eXcX",
"7.,.X.-.N.$XwXtXcXz * ~ &.=.w.@XwXtXz.$ W 0.V.$X@X4XeXlX+X, XXfX",
"=.V.+.] D.$X4XbX X; P ~ $.>.V.@XwX*X1 0 [ :.C.$X2XrXpXxX1., u o.",
"*.N.n.@.H.-XtX;Xr   R _ &.q.N.&XiX3.$ ^ &.>.S.%XwXyXxXuX0 #.+XfX",
"] K.F.} I.3XF.e b x 1 ! $.>.D.-X2Xq 0 ' =.=.B.5XwXyXbXx.W w.rXvX",
"X A.7XX.P.n.e c H a.S 5 $.9.D.7Xb.% Q { 0.*.L.5XrXsXvXO.Q C.kXkX",
"B 2 +Xl.h y x A D g.T.h i r.I.-Xo.: ^ ` 0.q.P.4XiXkXhXp ` G.xXfX",
"j.F V g o f c C V T.a.g.y u n.5.3 P _ $.>.N.P.4XsXbX+X0 %.XXxXzX",
"R._./.F s f n B y.T.p.g.c.y.m 2 # L ~ $.>.B.$X0XpXbX} E ,.eXzXkX",
"!.Q.OXN t x M M a.p.s.Y.Q./.{.~.5 : ^ [ w.S.$X4XkX.X, &.A.zXzXkX",
"~.W.OXb a v D S a.i.p.E.(./.{.<X3.# L ) e.H.$XiXoX0 ^ %.oXbXfXzX",
"E.Q.,XC r n A S a.g.s.Q.!._.].].OXg > ) e.G.%XoXY E { =.0XxXkXkX",
"!.M.{.D r v D B p.p.s.M.R.|.'.}.;Xv.@ E 0.V.@XW E $.7.=.>XbXjXbX",
"/.j.,Xc . d C V i.i.y.^.E./.].OX'.;Xj : :.w.u w ` =.9.&.oXnXxXx.",
"!.Q.'.c o o a S 2.h.g.c.^./.`.`.,X8Xg @ P T ;.0 Q 0.8.=.J.:Xo.+.",
"R.!._.d f d X o C J a.v.!.j.`.OXE.i = Y _ %.K.6.6  .%.( 6 } 9XbX",
"s.R.Y.t f F C r . v G H j.j.^.4.% 6 ( $.w.e.Z.5X*XR > 9 ! *XnXjX",
"H p.u.t b S G j.b o d K 2.Y.N # U / ` 0.,.,.P.7XyX*X0 $.*.=XbXjX",
"D U.b r B n i.i.R.i.t O f b # w / / 7.-.=.G.@X2X4XfX| ~ *.*XzXdX",
"X d 4 s D H u.g.m.~._.G s 2 $ I / $.0.&.D.-XL.3XyXvX3.U ,.oXkXkX",
"G s O x Z G h.U.Q.M.).8X8Xf.& U ~ [ 0.0.#X@X@X4X6XxX:X0 %.=XmXgX",
"<X{.y k F y.i.s.(.M.'.[.<Xf.# U ~ e.0.>.#X@X=XrXpXdXvX5.( A.<.;.",
"{.^.t b A G p.h.~.!.[.|.<Xz.% L / $.0.8.L.P.3XyXdXkXvXhXu Y 6.hX",
"{./.a x Z u.p.s.^.R._.{.,Xf.$ L ~ ` 8.-.B.$X3XeXpXxXzXz.P XXbXcX",
"OX^.r x C u.u.h.^.c._.{.<Xf.  5 E _ %.8.q.#X7X6XeXkX+.< e.*XzXzX",
";X^.r n C y.h.i.j./.).[.;Xy 2 y q : P %.0.N.@X=XtXF., %.0.oXzXxX",
"{._.r v D G s.i.g.R.Q.`.2.+ C K D l 1 = ` B.G.%XyX;.E q.%.0XlXfX",
"8Xh.4 v K D G p.h.h.Y.a.X l Z D G p.J f = ( D.$XtX;.| 0.*.0XxXkX",
"(.y . d f x l v m C F 4 t F D i.h.i.g.d.N ; O.H.x.0 L [ :.*XcXfX"
};
