/* XPM */
static char *_638589860723[] = {
/* columns rows colors chars-per-pixel */
"32 32 228 2 ",
"   c #33301F",
".  c #2E2A22",
"X  c #372D25",
"o  c #353125",
"O  c #35332A",
"+  c #3D3A2B",
"@  c #3B3528",
"#  c #3F3B30",
"$  c #371110",
"%  c #4B1915",
"&  c #521B19",
"*  c #571B16",
"=  c #4B1C0C",
"-  c #5B241B",
";  c #5A2A1D",
":  c #492119",
">  c #652419",
",  c #682416",
"<  c #752919",
"1  c #72311B",
"2  c #562A29",
"3  c #413A2D",
"4  c #423E35",
"5  c #7A2C24",
"6  c #772D29",
"7  c #7A3622",
"8  c #7B3727",
"9  c #6C342D",
"0  c #3F4030",
"q  c #444235",
"w  c #4A463B",
"e  c #4D493C",
"r  c #484437",
"t  c #514D3C",
"y  c #57523E",
"u  c #7D442A",
"i  c #65463B",
"p  c #4E4B41",
"a  c #4B4640",
"s  c #524E42",
"d  c #565346",
"f  c #59554C",
"g  c #5C5A4E",
"h  c #575548",
"j  c #5B5A53",
"k  c #664D46",
"l  c #615C4E",
"z  c #74584B",
"x  c #625E53",
"c  c #645A55",
"v  c #646255",
"b  c #666459",
"n  c #6A665A",
"m  c #6D6B5C",
"M  c #6B6754",
"N  c #716E5E",
"B  c #756255",
"V  c #72715F",
"C  c #66644F",
"Z  c #6E6C62",
"A  c #716E62",
"S  c #747264",
"D  c #7B7566",
"F  c #7D7A65",
"G  c #757269",
"H  c #7B776A",
"J  c #7D7B6A",
"K  c #7C7B73",
"L  c #787570",
"P  c #8A3C2C",
"I  c #833B27",
"U  c #8B3C32",
"Y  c #903E32",
"T  c #913F27",
"R  c #84422A",
"E  c #9C4D2F",
"W  c #93442D",
"Q  c #824735",
"!  c #934431",
"~  c #9C4933",
"^  c #994B37",
"/  c #8D532D",
"(  c #A54D35",
")  c #AB4D33",
"_  c #A44E3A",
"`  c #A45534",
"'  c #A2543B",
"]  c #B05B3D",
"[  c #B85F3F",
"{  c #AC623C",
"}  c #B5633E",
"|  c #8E5848",
" . c #AB5B43",
".. c #A45642",
"X. c #AC5F49",
"o. c #896959",
"O. c #9C6858",
"+. c #9E715C",
"@. c #AA6948",
"#. c #B46345",
"$. c #B66B43",
"%. c #BC6A4B",
"&. c #B76748",
"*. c #BB724B",
"=. c #B87348",
"-. c #A16653",
";. c #BC6C54",
":. c #BE7554",
">. c #BD7A56",
",. c #A5705E",
"<. c #817E6A",
"1. c #877965",
"2. c #8E776A",
"3. c #AD7A67",
"4. c #B37A67",
"5. c #C16D48",
"6. c #C3794D",
"7. c #C1774A",
"8. c #C46F50",
"9. c #C37453",
"0. c #C57A52",
"q. c #C57857",
"w. c #BF805D",
"e. c #85856D",
"r. c #868473",
"t. c #898673",
"y. c #8B8A74",
"u. c #8D8B79",
"i. c #848B7B",
"p. c #928D75",
"a. c #918E7A",
"s. c #9B8B75",
"d. c #94927C",
"f. c #999779",
"g. c #938970",
"h. c #AA8A77",
"j. c #BA8A78",
"k. c #A29D7D",
"l. c #A39179",
"z. c #BA9077",
"x. c #9FA17C",
"c. c #A3A07F",
"v. c #C8875C",
"b. c #D38159",
"n. c #C78A68",
"m. c #D38D69",
"M. c #CB956E",
"N. c #D3926C",
"B. c #D99568",
"V. c #D99A75",
"C. c #CC927C",
"Z. c #E19679",
"A. c #DFA477",
"S. c #E2A778",
"D. c #969483",
"F. c #9A9784",
"G. c #9E9C84",
"H. c #A29E84",
"J. c #A69B89",
"K. c #A5A284",
"L. c #ABA384",
"P. c #A5A289",
"I. c #AAA68B",
"U. c #ACAA8B",
"Y. c #A7A889",
"T. c #B1A889",
"R. c #ABA792",
"E. c #B2AD92",
"W. c #B5B395",
"Q. c #BBB995",
"!. c #BBB49A",
"~. c #BDBB9B",
"^. c #B7B698",
"/. c #B4B28C",
"(. c #BCB7A1",
"). c #C09988",
"_. c #DAA685",
"`. c #DDB388",
"'. c #D7AC94",
"]. c #C1BD9C",
"[. c #C0BB95",
"{. c #D1AE97",
"}. c #E3AC85",
"|. c #E7A786",
" X c #EBB486",
".X c #ECB48A",
"XX c #E9B589",
"oX c #E1B592",
"OX c #EABD93",
"+X c #E3B89C",
"@X c #E8B998",
"#X c #F5B78E",
"$X c #C3BFA3",
"%X c #C1B6A0",
"&X c #D4B3A4",
"*X c #EAB6A0",
"=X c #BCC198",
"-X c #C3C29C",
";X c #EDC79B",
":X c #F3C49C",
">X c #F4CB9C",
",X c #FAC79B",
"<X c #ECCA94",
"1X c #C4C2A3",
"2X c #CAC4A8",
"3X c #DCC2A9",
"4X c #EAC2A3",
"5X c #F7CBA5",
"6X c #F3D0A5",
"7X c #FCDCAE",
"8X c #F9D3AB",
"9X c #E7C9B4",
"0X c #F8D9B9",
"qX c #EAD4BD",
"wX c #FBE3BC",
"eX c #F5E6BF",
"rX c #FBDCC5",
"tX c #F8DDCC",
"yX c #EED8C1",
"uX c #F3E3C4",
"iX c #FCE4C5",
"pX c #FDE5CA",
"aX c #FDEBCB",
"sX c #F9E7C8",
"dX c #FFE5D1",
"fX c #FFECD2",
"gX c #FFF2D3",
"hX c #FEF8D8",
/* pixels */
"rXiX+X;.{ U 9 n.V.-.2 B d.y.y.d.y.S G 0 q G Z M b x v j f . t I.",
"sXaX3X*.:...O.7XXXB.' - l K i.<.V A b o t.F.d.d.u.J S L b 4 a.$X",
"rXaX;X$.0.W O.6XXXV.b.] - 2 c S H Z O <.W.K.c.d.u.a.<.A v e E.].",
"sXiXoX9.*.< C.7XOX_.v.0.%.I ; 9 k X d 1X^.T.Y.f.y.a.e.A M e I.$X",
"sXpX@X5.1 +.0X8X>X;X|.9.0.$.` ~ > $ s.=XQ.E.H.I.p.t.r.Z b w I.$X",
"sXfX_.I h.pXaX0X6X,X Xm.$.9.] ) U & s.-XQ.E.k.I.d.u.r.Z b t U.~.",
"yX4.R u yXpXiXeX8X#XS.S.0.0.#.( U % l.-X^.!.L.P.d.u.F G n r I.].",
"X.3.M...3.fXwX0X6XOX}.|.8.9.&.` ! & s.].!.!.k.Y.p.u.<.G x t ~.-X",
"tXhX`.%.I &XfX>X>X`.}.|.q.:.#.) Y = a.2X-XT.Y.P.D.d.J m v + h H ",
"rXsXoX9.T +.fX8XOX}.#XB.} 0.#.( U & 3 s 1.U.Y.k.a.r.F S s q d o ",
"iXaX+X=.( | rX6X<X}.V.*.6.*.E _ 6 % n j + q u.H.y.y.V V p n D.Z ",
"uXfX@X@. .8 +X7X<XA.:.9.9.] _ P % z F.K L f O n D.J V M q r.u.H ",
"uXgX@X^ 7 , u +X,Xm.%.0.&.' 5 * 1.U.f.d.D H x . w Z H c r G.G.p.",
"fX3X| 6 ..%...5 4.Z.%.' R ; i J.1XW.x.L.f.y.<.Z O O d f h /.Y.k.",
"+.o.&XC.*.6.9.^ I @.W P & i 2X=XQ.^.Y.L.f.f.u.<.V p O O v W.K.K.",
"z.pXhX`.$.9.*.] 6 P >.;.> z %X^.Q.^.R.J.Y.y.y.u.S Z f . M ~.k.I.",
"fXsXfX*X*.6.#.W / |.B.} ! % h.-XQ.Q.U.K.P.a.y.y.V V m a m =XK.P.",
"uXsXaX4X=.#.! R }.OXV.%.' > k $X^.~./.c.P.d.a.y.V D b p m 1Xk.U.",
"iXrXaXoX5.( 7 {.8XXXV.8.[ P & 2.2XW./.K.P.t.u.r.A S m a M ~.L.P.",
"pXrXpXM.&.< ).iX;XXXB.9.} ) > 2 R.!.U.K.G.u.d.r.Z S x e M ^.c.K.",
"iXpX5X>.! | fX0X5X.Xv.0.#.) P & @ N t.J.t.y.d.J Z V g d H W.Y.G.",
"iXfX_.%.8 {.fXrX,X}.v.*.#._ I & l c O d p.p.u.J G v g q r C <.G.",
"iXiXV. .u yXsX8X:XS.v.*.&._ , i H.D n O g F.u.D Z v q O r d   S ",
"pXiXn.E O.dXwX6X>XS.%.9.#.^ * 1.H.<.A c O n u.G b @ f c 4 A s o ",
"aX8X>.! J.fX8X5X,XN.8.5.{ 6 2 U.G.y.S b f O v Z + V r.Z q v n w ",
"rX'.&.8 *XfX8X5X.Xm.*.5._ * o.~.f.r.S V b e o 3 p.G.u.M e f S j ",
"O.u < O.aX0X6X>X}.n.=.#.6 : K.E.F.r.N S x g @ u.^.H.u.D d w J x ",
"uX_.< '.wX5X:XXX}.m.=.! * 2.^.k.a.r.Z D b h y (.U.Y.d.F j q G n ",
"sX4XI j.7X,X#XS.|.6.&.> z 1X/.f.d.u.Z G b r F 1XY.I.f.e.v q n A ",
"gX|.' Q oX X}. Xn.0.( - U.].T.f.a.r.S G l t K.].T.f.D.r.v w Z V ",
"pXN.#.7 V.XX|.v.>.@.> B ^.T.L.K.u.u.S m d F 1XW.Y.K.d.r.n e m Z ",
"9X:.E 8 M.w.;.{ ` 5 ; t.J.T.Y.d.a.r.Z S 4 d.W.K.G.p.t.H g # Z b "
};
