/* XPM */
static char *d2FsbF91cCslMjgxJTI5[] = {
/* columns rows colors chars-per-pixel */
"32 32 231 2 ",
"   c #33301F",
".  c #2E2A22",
"X  c #372D25",
"o  c #353125",
"O  c #35332A",
"+  c #3C392A",
"@  c #3B3528",
"#  c #3F3B30",
"$  c #371110",
"%  c #4B1815",
"&  c #521B19",
"*  c #571B16",
"=  c #4B1C0C",
"-  c #5B241B",
";  c #5A2A1D",
":  c #492119",
">  c #652419",
",  c #682416",
"<  c #752919",
"1  c #72311B",
"2  c #552928",
"3  c #413C2D",
"4  c #423E35",
"5  c #5D302D",
"6  c #7A2C24",
"7  c #772D29",
"8  c #7A3622",
"9  c #7B3727",
"0  c #6C342D",
"q  c #3F4030",
"w  c #444235",
"e  c #49463B",
"r  c #4C493C",
"t  c #484437",
"y  c #514D3C",
"u  c #57523E",
"i  c #7D442A",
"p  c #65463B",
"a  c #4E4B41",
"s  c #4B4640",
"d  c #524E42",
"f  c #575346",
"g  c #58564C",
"h  c #5C5A4E",
"j  c #575548",
"k  c #5B5A53",
"l  c #664D46",
"z  c #615C4E",
"x  c #74584B",
"c  c #625E52",
"v  c #645A55",
"b  c #646255",
"n  c #666459",
"m  c #6A665A",
"M  c #6D6B5C",
"N  c #6B6754",
"B  c #716E5E",
"V  c #756256",
"C  c #72715F",
"Z  c #66644F",
"A  c #6E6C62",
"S  c #716E62",
"D  c #747265",
"F  c #7B7566",
"G  c #7D7A65",
"H  c #757269",
"J  c #7B776A",
"K  c #7D7B6A",
"L  c #7C7B73",
"P  c #787570",
"I  c #8A3C2C",
"U  c #833B27",
"Y  c #8B3C32",
"T  c #903E32",
"R  c #913F27",
"E  c #84422A",
"W  c #9C4D2F",
"Q  c #93442D",
"!  c #824735",
"~  c #934431",
"^  c #9C4933",
"/  c #994B37",
"(  c #8D532D",
")  c #A54D35",
"_  c #AB4D33",
"`  c #A44E3A",
"'  c #A2543B",
"]  c #A55434",
"[  c #B05A3D",
"{  c #B85F3F",
"}  c #AD623C",
"|  c #BA613F",
" . c #8E5848",
".. c #AB5B43",
"X. c #A55743",
"o. c #A45F50",
"O. c #B35E41",
"+. c #896959",
"@. c #9C6858",
"#. c #9E715C",
"$. c #AA6948",
"%. c #B46245",
"&. c #B66B43",
"*. c #BC6A4B",
"=. c #B76748",
"-. c #BB724B",
";. c #B87348",
":. c #A16653",
">. c #BC6C54",
",. c #BE7554",
"<. c #BD7A56",
"1. c #A5705E",
"2. c #817E6A",
"3. c #877965",
"4. c #8E776A",
"5. c #AD7A67",
"6. c #B37A67",
"7. c #C16D48",
"8. c #C3794D",
"9. c #C1774A",
"0. c #C46F50",
"q. c #C37453",
"w. c #C57A52",
"e. c #C57857",
"r. c #BF805D",
"t. c #85856D",
"y. c #868473",
"u. c #898673",
"i. c #8C8A74",
"p. c #8D8B79",
"a. c #848B7B",
"s. c #928D75",
"d. c #918E7A",
"f. c #9B8B75",
"g. c #94927C",
"h. c #999779",
"j. c #938970",
"k. c #AA8A77",
"l. c #BA8A79",
"z. c #A29C7D",
"x. c #A39179",
"c. c #BA9077",
"v. c #9FA17C",
"b. c #A3A07F",
"n. c #C8875B",
"m. c #D38159",
"M. c #C78A68",
"N. c #D38D69",
"B. c #CB946E",
"V. c #D3926C",
"C. c #D99568",
"Z. c #D99A75",
"A. c #CC927C",
"S. c #E19679",
"D. c #DFA377",
"F. c #E2A778",
"G. c #969483",
"H. c #9A9784",
"J. c #9E9C84",
"K. c #A29E84",
"L. c #A69B89",
"P. c #A5A284",
"I. c #ABA384",
"U. c #A5A289",
"Y. c #AAA68B",
"T. c #ACAA8B",
"R. c #A8A989",
"E. c #B1A889",
"W. c #ABA792",
"Q. c #B2AD92",
"!. c #B4B395",
"~. c #BAB994",
"^. c #BBB49A",
"/. c #BDBB9B",
"(. c #B7B698",
"). c #B4B28C",
"_. c #BCB7A1",
"`. c #C09988",
"'. c #D9A685",
"]. c #DDB388",
"[. c #D7AC94",
"{. c #C1BD9C",
"}. c #C0BB95",
"|. c #D1AE96",
" X c #E3AC85",
".X c #E7A686",
"XX c #ECB386",
"oX c #EBB48A",
"OX c #E9B588",
"+X c #E1B592",
"@X c #EABD93",
"#X c #E3B89C",
"$X c #E8B998",
"%X c #F5B78E",
"&X c #C3BFA3",
"*X c #C1B6A0",
"=X c #D3B3A4",
"-X c #EAB6A0",
";X c #BCC198",
":X c #C3C29C",
">X c #EDC79B",
",X c #F4C49B",
"<X c #F4CB9C",
"1X c #FAC79B",
"2X c #ECCA93",
"3X c #C4C2A3",
"4X c #CAC4A8",
"5X c #DCC2A9",
"6X c #EAC2A3",
"7X c #F6CBA4",
"8X c #F3D0A5",
"9X c #F6D1AA",
"0X c #FBD7AC",
"qX c #E7C9B3",
"wX c #F8D9B8",
"eX c #ECD3BD",
"rX c #FBE3BC",
"tX c #F4E6BF",
"yX c #FBDCC5",
"uX c #F8DDCC",
"iX c #EED8C1",
"pX c #F3E3C3",
"aX c #FCE4C5",
"sX c #FFE8C4",
"dX c #FDE5CA",
"fX c #FDEBCB",
"gX c #F6E6CB",
"hX c #FFE5D1",
"jX c #FFECD2",
"kX c #FFF2D3",
"lX c #FEF8D8",
/* pixels */
"qXfXgXgXgX+.yXjXuXaXaXsXaXdXsXjXc.#.jXpXpXtXrXuX:.eXgXdXfXtXaXyX",
",.N..X7X'.i [.9XsXsXjXaXuXyXaXgXdX+.5XjXjXjXaXlX5.6.jXdXdXfXfXaX",
"/ %.' U < < =.<.M.Z.'.qXsXfXdXjXlX[. .#X#X$X+X@XB.E D.$X+X6X#X#X",
"8 8 ! l.[.1.9 Q W [ *.,.B.+X6X-X].`.9 / $.;.q.*.] i U >.e.$.-.>.",
"V.Z.OX0XrXfXqXl.@.i U ~ =.7.;.-.=.>.X.8 .._ Q 9 5.iXk.1 >.w.-.} ",
"n.oXoX1X7XwXfXjXhXeX|. .< ) %.-.8.9.>., 9  .#.=XhXuXdX#.< Q X.Y ",
">.'. X@X1X8X9X9XrXaXkXjX`.9 ~ =.-.q...i #XaXhXfXsXaXfXaXB.@.@.0 ",
"} n.F. XOX,X8X8X9X0XyXwXsX[.I Q [ ^ 6 #X0X>X9X<XwXtXrX0X0X0X0XM.",
"] <.B..X XXXoX1X<X<X<X7X>X0X X( 7 8 e.7X2X2X,X<X8X7X<X<X@XOX%XZ.",
"6 %.w.q.N.M.N.V.D.D. XoXXXXX$X.XU o..XN.D. XD.].@X@X,X2X XZ.C.:.",
"; > ^ =.;.;.-.0.-.w.n.n.V.Z.Z.V.e.~ =.*.,.Z.%X X.XF.XX.Xn.m.' 2 ",
"y.V - , Q %.7.7.q.q.-.9.q.7.&.;.>.E ] w.<.-.C..X.XF.C.q.e.[ - N ",
"U.!.T.x * 7 ` [ %.=.%.O.O.O.] / > * U %.q.-.| e.,.w.;.w.=.- l G.",
"I.Y.{.&X4.: * 9 ^ ` ) ) _ T > % x l ; ' [ *.n.-.q.w.-.*.U 2 L i.",
"I.I.E.Q.(.P.V 5 * , U Y , * p k.*X4Xp 7 ` ) } %.*.%.O.] ; z a.a.",
"G.J.z.z.z.!.*XT.3.l & & 5 4.{.:X~.~.L.* I ' ) _ _ ) _ ^ 5 D t.g.",
"p.i.s.p.d.H.h.J.K.K.z @ T.4X(.(.}.~.3X3.% 7 Y Y ~ I I 0 u P S i.",
"y.p.p.i.y.u.u.u.2.F v B ^.!./.~.(.!.!.T.x % & = & & & $ : A H S ",
"S H D M C M D D S v @ u.Q.E.).T.W.T.v.h.G.m 3 f.j.x.x.s.d O v H ",
"S S H H H D S m v O f L.U.P.P.P.U.I.b.g.y.k d 4X{.:X~.:X4X2.o w ",
"q f k b n b b g O h p.i.J.R.K.U.Y.z.x.F P + G :X^.^././.^.!.u.4 ",
"g.2.y t j h d O A H.d.i.i.i.g.s.i.s.u.J g w T.).^.^.Q.Q.Y.K.H.D ",
"!.&XU.G u @ . b a.i.i.g.d.i.d.s.i.i.L b O i.R.P.z.b.K.z.R.P.G.S ",
"P.!.:X3X^.i.w A D G 2.K a.y.i.i.p.y.A . N K.J.U.R.I.Y.R.h.s.g.N ",
"h.T.I.T.T.^.g.+ n A H A M H S D D C O r G.i.p.G.g.g.g.p.i.p.p.b ",
"s.U.K.U.P.K.J.B @ b b C D D D A M a O S K i.u.g.p.p.p.u.s.g.K b ",
"i.d.g.h.g.s.p.y.j q c h c A b M k O d H C M F G t.K u.u.t.K C b ",
"J y.u.t.G F M m b @ w d r e a s . o h b m D D S S H A A A H P k ",
"g M b b c f r w 4 t t J N N N B b b j t 4 d d c c m n b N b m g ",
"# e t w 4 e g n D f b !.~.{.3X{.;X(.Q.J.y.m 4 # y t r r r r 4 . ",
"A M A M H J S m y o 2.I.P.R.z.b.h.P.P.K.d.G.f f /.Y.W.R.Y.Q.s.y ",
"m A A A M b h e O D H.J.P.P.T.U.T.P.b.s.F S o K :X}./.3X&X/.3XY."
};
