/* XPM */
static char *aea2cfe025e140e58193ad1da3cb941fz5KSqzAJ8zUbRSnt[] = {
/* columns rows colors chars-per-pixel */
"32 32 227 2 ",
"   c #1E7A2F",
".  c #0A7D34",
"X  c #0B7338",
"o  c #13793C",
"O  c #1A7A37",
"+  c #13672B",
"@  c #27773A",
"#  c #387739",
"$  c #276E34",
"%  c #744425",
"&  c #7B4C2B",
"*  c #7A472C",
"=  c #7E542E",
"-  c #7F4D36",
";  c #7C5333",
":  c #7E5A35",
">  c #79593C",
",  c #516935",
"<  c #616236",
"1  c #7A623B",
"2  c #2C7F44",
"3  c #207443",
"4  c #307640",
"5  c #775941",
"6  c #437D41",
"7  c #676E42",
"8  c #7B6A44",
"9  c #766A46",
"0  c #7B6D52",
"q  c #6A7D55",
"w  c #767B52",
"e  c #7F7B58",
"r  c #77795A",
"t  c #834D2E",
"y  c #82512F",
"u  c #854E33",
"i  c #894F35",
"p  c #804D38",
"a  c #914E3B",
"s  c #845434",
"d  c #8B5435",
"f  c #895A36",
"g  c #86553A",
"h  c #8D5539",
"j  c #865B3A",
"k  c #8C5C3C",
"l  c #865932",
"z  c #93543C",
"x  c #925C3D",
"c  c #985B3E",
"v  c #8C623E",
"b  c #82633C",
"n  c #93623F",
"m  c #8D5D42",
"M  c #855E41",
"N  c #965C42",
"B  c #9B5C44",
"V  c #9B5B46",
"C  c #A15B53",
"Z  c #A45649",
"A  c #866445",
"S  c #8D6342",
"D  c #826B46",
"F  c #8A654B",
"G  c #8C6B4A",
"H  c #886A44",
"J  c #936344",
"K  c #9A6345",
"L  c #936A45",
"P  c #946549",
"I  c #9D634A",
"U  c #956B4C",
"Y  c #9C6B4B",
"T  c #986C47",
"R  c #82734D",
"E  c #9C724E",
"W  c #99754C",
"Q  c #8E6E59",
"!  c #9B6955",
"~  c #8C7353",
"^  c #887957",
"/  c #937255",
"(  c #9D7352",
")  c #9E7C5B",
"_  c #90785C",
"`  c #A2654B",
"'  c #A26C4E",
"]  c #A8684D",
"[  c #A06045",
"{  c #A26453",
"}  c #A36C51",
"|  c #AC6C54",
" . c #A66759",
".. c #B16452",
"X. c #A47252",
"o. c #AD7356",
"O. c #A5755A",
"+. c #A77A5B",
"@. c #AA7B5B",
"#. c #A87756",
"$. c #B1755B",
"%. c #B2795C",
"&. c #B9795E",
"*. c #9E7E62",
"=. c #A97B66",
"-. c #B57D62",
";. c #B97B64",
":. c #0C843D",
">. c #048F3A",
",. c #0D8D3D",
"<. c #048736",
"1. c #138239",
"2. c #1B863C",
"3. c #128B3C",
"4. c #1A8B3E",
"5. c #108335",
"6. c #0C923D",
"7. c #03993D",
"8. c #009339",
"9. c #12923F",
"0. c #2D833C",
"q. c #0C8E42",
"w. c #148D42",
"e. c #1A8C42",
"r. c #1C8240",
"t. c #0D9542",
"y. c #039B42",
"u. c #0B9B44",
"i. c #0D9D49",
"p. c #029746",
"a. c #149443",
"s. c #1B9344",
"d. c #159A46",
"f. c #199946",
"g. c #169549",
"h. c #1A9549",
"j. c #149D4A",
"k. c #1B9B4A",
"l. c #189D52",
"z. c #248C44",
"x. c #298D43",
"c. c #2B8747",
"v. c #3A874A",
"b. c #318E4D",
"n. c #3A8D4A",
"m. c #368946",
"M. c #239346",
"N. c #23964C",
"B. c #2C914C",
"V. c #239C4D",
"C. c #2A974B",
"Z. c #34934F",
"A. c #2B9C52",
"S. c #3B9C54",
"D. c #3A995D",
"F. c #0CA34A",
"G. c #0BAA4E",
"H. c #06A348",
"J. c #13A24B",
"K. c #1BA24D",
"L. c #10A94F",
"P. c #00B44F",
"I. c #0FA752",
"U. c #1CA551",
"Y. c #15AA51",
"T. c #1CAB55",
"R. c #1CAE5A",
"E. c #0FB555",
"W. c #20A34F",
"Q. c #2AA14F",
"!. c #22A351",
"~. c #2BA353",
"^. c #23AA54",
"/. c #22AA59",
"(. c #30A557",
"). c #20B35B",
"_. c #3D9563",
"`. c #56824D",
"'. c #488F54",
"]. c #5C8D5C",
"[. c #568A55",
"{. c #479658",
"}. c #52915A",
"|. c #5F915C",
" X c #4B8749",
".X c #678859",
"XX c #768A5D",
"oX c #4B9860",
"OX c #6E8460",
"+X c #798B64",
"@X c #6A9E6B",
"#X c #669969",
"$X c #7A9665",
"%X c #44AA64",
"&X c #5AA565",
"*X c #66A56B",
"=X c #6CA66D",
"-X c #888257",
";X c #90825F",
":X c #AB815E",
">X c #A5815D",
",X c #B0805C",
"<X c #898B6A",
"1X c #888663",
"2X c #9B8767",
"3X c #95926D",
"4X c #9D8F72",
"5X c #989A77",
"6X c #899B71",
"7X c #A3856D",
"8X c #A78565",
"9X c #B38464",
"0X c #BA8769",
"qX c #A79574",
"wX c #AD9079",
"eX c #93A27D",
"rX c #98AB7D",
"tX c #87A079",
"yX c #7FC589",
"uX c #B79C87",
"iX c #9DAA87",
"pX c #93BD8B",
"aX c #88A680",
"sX c #AAA787",
"dX c #AAB48C",
"fX c #A7BC91",
"gX c #87D196",
/* pixels */
"t Y v Y L L s ( P g u g N S ! V Y h } B h y L j A E x P E W y d ",
"' * s ( U s k S k X.+.S M S X.E % j k X.T ' f s ' o.c % t n K E ",
"9Xs n I X.h ' K x #.8Xv s v E ) Y @.S A W :Xz s K N X.X.%.n Y #.",
"j E T t ' ' o.$.s J X.X.$.B t & | ! N s +.+.o.] j ; G X.X.z n #.",
"S 9X' d t c s s ! k h V ] ` z B ! a I P P d Y X.z I S v t c n T ",
"v s d #.x #.#.( 8XP V m b ~ ^ ;X-X9 G #.u k v : ..O.E ( [ ] x b ",
"9Xv K &.X.v D D ^ F =.7X.X'.0.# b., 7 / B @.O.D 2XR < 8 } I d L ",
"v d k d X.= 1 -X<X> F w $ ,.u.f.G.f.}.D { z U ^ `. X# , 8X%.` v ",
"F ! F z P ^ q X 3XZ w 6.^.5.^.9.q.4 + <X ..XB.i.j.f.0.R B ] ' = ",
"0 +XXX~ -X{.g.q.Q ;X[.k.9.f.Y.F.oXr +XaX+Xc.i.Y.P.x.rX^ P i B E ",
"$ 4.0.# B.G.p.oXO.&Xd.s.J.Q.7.H.@XC Q @Xz.G.H./.s.0.*X&X&X6X~ ! ",
"v.H.F.9.q.H.l.<XqXU.7.9.T.M.4.H.{.C 2Xb.p.G.!.M.  V.9.6.l.q.# OX",
"4Xf.Y.~.6.8.Z.=.&X7.d.J.G.n.'.u.r.7XiXg.u.K.M.9.W.U.d.U.I.p.c.OX",
"eX2.9.~.F.0.+XuXa.7.M.Y.9.$X{.7.N.dX@X>.9.Q.3.J.d.3.K.J.w.]._ uX",
"%X,.9.k.G., 7X#X,.7.K.J.|.qXS.6.g.pX%Xp.(.K.9.Y.9.K.~.4.XX' z A ",
",.j.C.4.P.(.iXJ.x.7.).8.qX#.9.J.j.yXN.p.9.J.f.9.W.Y.9.=X1 x ' n ",
"9.9.J.7.K.k.K.C.2.Q.k.x.*X&XB.d.V.%X!.u.A.3.K.2.~.y.w.#XtX^ *.F ",
"9.4.k.d.f.M.d.M.K.J.i.a.C.M.d.F.k.A.W.u.!.a.j.M.Q.G.i.V.e.v.3Xz ",
"9.9.f.d.s.A.s.2.Y.u.K.!.d.9.j.u.!.3.k.u.!.k.d.V.N.f.j.y.y.d.[.! ",
"6.f.K.k.9.W.9.e.k.3.s.s.3.w.!.e.U.a.d.a.!.d.a.W.l.1.M.9.f.i.O 5X",
">.J.J.f.t.U.<.K.h.3.e.w.h.d.V.e.K.K.a.3.^.d.a.K.l.:.^.^.k.u.6.*X",
",.d.f.h.d.K.<.).3.a.T.Y.R.j.g.J.a.^.a.3.l.k.a.K.e.J.G.Y.U.L.i.A.",
"x.:.x.Z.e.h.3.R.O g.R.R./.h.g.l.a.J.V.3.f.k.3.K.s.K.g.2 c.C.g.K.",
"&X  v.{.1.r.2.t.}.b.q.<.2.n.D.A.s.t.(.0.a.V.. k.d.,.@X7X0 ].x.7.",
"~ 8 R 9 q ].4 2 7X3Xw ^ 4X4XXX@Xt.g.w.o X _._.3 o .X/ %.$.G }.p.",
"S X.9Xj > _ 6XaXg A 8 / =.! R dXq.q.r.D.}.aXiXsX[.e S L c U +Xo ",
"s x [ z a  .{ p $.L = k c a N 2XgX}.`.fXsX/ u { _ P I L = x ;X.X",
":Xv x o.&.| I N K J L E [ | @.U 2XwX*.F g @.' t ;.{ Y W v d N E ",
"L v f ( Y & j 9Xn v W T s c X.v m C  .` s ' E l ] c y v #.o.n v ",
"y x k v n f b W ,Xn l h d t s k * N ;.9Xc u d c t L v s ] %.n b ",
"' 9X} s Y @.Y f d h x Y 0XO.J X.@.v % & N I } -.x E >XI z d k v ",
"u O.O.s J X.K h s } T f / A ; U [ K J k E A F *.` = G X.N d K ] "
};
