/* XPM */
static char *d2FsbF9kb3du[] = {
/* columns rows colors chars-per-pixel */
"32 32 231 2 ",
"   c #33301F",
".  c #2E2A22",
"X  c #372D25",
"o  c #353125",
"O  c #35332A",
"+  c #3C392A",
"@  c #3B3528",
"#  c #3F3B30",
"$  c #371110",
"%  c #4B1815",
"&  c #521B19",
"*  c #571B16",
"=  c #4B1C0C",
"-  c #5B241B",
";  c #5A2A1D",
":  c #492119",
">  c #652419",
",  c #682416",
"<  c #752919",
"1  c #72311B",
"2  c #552928",
"3  c #413C2D",
"4  c #423E35",
"5  c #5D302D",
"6  c #7A2C24",
"7  c #772D29",
"8  c #7A3622",
"9  c #7B3727",
"0  c #6C342D",
"q  c #3F4030",
"w  c #444235",
"e  c #49463B",
"r  c #4C493C",
"t  c #484437",
"y  c #514D3C",
"u  c #57523E",
"i  c #7D442A",
"p  c #65463B",
"a  c #4E4B41",
"s  c #4B4640",
"d  c #524E42",
"f  c #575346",
"g  c #58564C",
"h  c #5C5A4E",
"j  c #575548",
"k  c #5B5A53",
"l  c #664D46",
"z  c #615C4E",
"x  c #74584B",
"c  c #625E53",
"v  c #645A55",
"b  c #646255",
"n  c #666459",
"m  c #6A665A",
"M  c #6D6B5C",
"N  c #6B6754",
"B  c #716E5E",
"V  c #756256",
"C  c #72715F",
"Z  c #66644F",
"A  c #6E6C62",
"S  c #716E62",
"D  c #747265",
"F  c #7B7566",
"G  c #7D7A65",
"H  c #757269",
"J  c #7B776A",
"K  c #7D7B6A",
"L  c #7C7B73",
"P  c #787570",
"I  c #8A3C2C",
"U  c #833B27",
"Y  c #8B3C32",
"T  c #903E32",
"R  c #913F27",
"E  c #84422A",
"W  c #9C4D2F",
"Q  c #93442D",
"!  c #824735",
"~  c #934431",
"^  c #9C4933",
"/  c #994B37",
"(  c #8D532D",
")  c #A54D35",
"_  c #AB4D33",
"`  c #A44E3A",
"'  c #A2533B",
"]  c #A55434",
"[  c #B05A3D",
"{  c #B85F3F",
"}  c #AD623C",
"|  c #BA613F",
" . c #8E5848",
".. c #AB5B43",
"X. c #A55743",
"o. c #A45F50",
"O. c #B35E41",
"+. c #896959",
"@. c #9C6858",
"#. c #9E715C",
"$. c #AA6948",
"%. c #B46245",
"&. c #B66B43",
"*. c #BC6A4B",
"=. c #B76748",
"-. c #BB724B",
";. c #B87348",
":. c #A16653",
">. c #BC6C54",
",. c #BE7554",
"<. c #BD7A56",
"1. c #A5705E",
"2. c #817E6A",
"3. c #877965",
"4. c #8E776A",
"5. c #AD7A67",
"6. c #B37A67",
"7. c #C16D48",
"8. c #C3794D",
"9. c #C1774A",
"0. c #C46F50",
"q. c #C37453",
"w. c #C57A52",
"e. c #C57857",
"r. c #BF805D",
"t. c #85856D",
"y. c #868473",
"u. c #898673",
"i. c #8C8A74",
"p. c #8D8B79",
"a. c #848B7B",
"s. c #928D75",
"d. c #918E7A",
"f. c #9B8B75",
"g. c #94927C",
"h. c #999779",
"j. c #938970",
"k. c #AA8A77",
"l. c #BA8A79",
"z. c #A29C7D",
"x. c #A39179",
"c. c #BA9077",
"v. c #9FA17C",
"b. c #A3A07F",
"n. c #C8875B",
"m. c #D38159",
"M. c #C78A68",
"N. c #D38D69",
"B. c #CB946E",
"V. c #D3926C",
"C. c #D99568",
"Z. c #D99A75",
"A. c #CC927C",
"S. c #E19679",
"D. c #DFA377",
"F. c #E2A778",
"G. c #969483",
"H. c #9A9784",
"J. c #9E9C84",
"K. c #A29E84",
"L. c #A69B89",
"P. c #A5A284",
"I. c #ABA384",
"U. c #A5A289",
"Y. c #AAA68B",
"T. c #ACAA8B",
"R. c #A8A989",
"E. c #B1A889",
"W. c #ABA792",
"Q. c #B2AD92",
"!. c #B4B395",
"~. c #BAB994",
"^. c #BBB49A",
"/. c #BDBB9B",
"(. c #B7B698",
"). c #B4B28C",
"_. c #BCB7A1",
"`. c #C09988",
"'. c #D9A685",
"]. c #DDB388",
"[. c #D7AC94",
"{. c #C1BD9C",
"}. c #C0BB95",
"|. c #D1AE96",
" X c #E3AC85",
".X c #E7A686",
"XX c #ECB386",
"oX c #EBB48A",
"OX c #E9B588",
"+X c #E1B592",
"@X c #EABD93",
"#X c #E3B89C",
"$X c #E8B998",
"%X c #F5B78E",
"&X c #C3BFA3",
"*X c #C1B6A0",
"=X c #D3B3A4",
"-X c #EAB6A0",
";X c #BCC198",
":X c #C3C29C",
">X c #EDC79B",
",X c #F4C49B",
"<X c #F4CB9C",
"1X c #FAC79B",
"2X c #ECCA93",
"3X c #C4C2A3",
"4X c #CAC4A8",
"5X c #DCC2A9",
"6X c #EAC2A3",
"7X c #F6CBA4",
"8X c #F3D0A5",
"9X c #F6D1AA",
"0X c #FBD7AC",
"qX c #E7C9B3",
"wX c #F8D9B8",
"eX c #ECD3BD",
"rX c #FBE3BC",
"tX c #F4E6BF",
"yX c #FBDCC5",
"uX c #F8DDCC",
"iX c #EED8C1",
"pX c #F3E3C3",
"aX c #FCE4C5",
"sX c #FFE8C4",
"dX c #FDE5CA",
"fX c #FDEBCB",
"gX c #F6E6CB",
"hX c #FFE5D1",
"jX c #FFECD2",
"kX c #FFF2D3",
"lX c #FEF8D8",
/* pixels */
"Y.&X{.&X&X/./.:XJ o D H s.P.I.Y.U.T.K.P.J.H.D O t k b m S C C n ",
"y d.Q.T.Y.T.Y./.f j G.p.K.P.K.z.K.z.I.P.I.t.  y M S J D A A m A ",
". 4 r r r r t y + w n y.J.).!./.:X:X{.!.!.Z j H n g e 4 w r r # ",
"g m b N b b m c b f r w t f Z N B M N M H e e # 4 r f c k b n h ",
"k J D M A A H H M D C n k k o . e d e e d w O b M M F K t.u.2.L ",
"b C G t.y.u.K 2.G G C C H f O k m b A b h c q j y.p.d.g.h.g.G.u.",
"c L g.g.u.i.p.p.g.u.i.K A O a M S D H D D b b + M J.P.P.I.h.K.s.",
"n p.i.i.g.g.g.g.G.d.i.G.r O A D D S D M A D A n 3 d.(.T.T.T.T.J.",
"m g.g.h.Y.Y.U.T.P.v.P.N . A 2.p.i.i.y.a.K 2.F H M 3 i._.3X{.!.P.",
"A d.P.T.K.z.I.z.P.R.i.O n 2.p.p.i.p.p.g.g.p.i.p.b o @ u G U.&X!.",
"H H.K.Y.).Q.^.^.T.Q.w j J u.s.i.g.g.i.i.i.d.H.m o a k j t y 2.g.",
"w u.!.(./.^.!.^.:XK O L F h.z.Y.P.P.P.J.u.d.h O g b b n Z c d 4 ",
"w o 2.4X/.;X:X:X4Xd k L g.I.I.U.P.b.P.P.L.j O b m S S D S D S S ",
"H c O f s.f.k.j.f.3 m H.h.b.T.W.T.).E.T.4.3 b A D H S S S D H S ",
"D A A : $ & & & = & % x T.!.!.(.~.{.!./.B v F t.u.u.y.y.y.p.i.u.",
"j.D J d 0 I I T T Y 7 % 3.:X~.~./.!.4XW.@ z H.J.K.h.H.d.d.d.i.d.",
"g.2.D 0 ~ _ ) _ _ ) ' T * L./.!.:X{.4.0 % 2 p 4.Y.{.!.h.z.h.U.G.",
"i.a.z 2 ] [ %.=.%.%.W ' 6 p 4X*Xx.p % > I U > * 2 +.P.(.Q.E.I.I.",
"s.L 2 U *.8.9.0.,.8.-.[ ` ; l x % > I ) ) ` ` / 7 * % 4.3X3XE.I.",
"g.z - *.8.;.n.0.e.| -.q.=.U * > / ' | | O.%.%.%.[ ` 7 * x T.!.L.",
"V - ' w.q.N.D..X.XC.;.<.0.` I ,.| ;.7.0.q.-.w.q.7.*.%.Q > - V u.",
"2 X.m.n..XXXF.XX X%XZ.,.7.%.Q e.V.Z.Z.V.n.n.w.*.0.-.;.*.=.) - ; ",
"@.C.Z. X2X,X,X@X]..X XF.N.'.$.E  X@XOXOXoXXXF.D.V.N.M.N.8.q.%.6 ",
"Z.oXOX@X<X<X7X8X,X@X2X2X7Xr.8 7 (  X0X>X<X<X,X7X1XOXXXXX'.B.<.] ",
"M.0X0X0X9XrXtXwX8X9X<X0X#X7 ^ [ Q E [.aXwXwXwX9X8X8X>XOX XXXn.} ",
"0 @.@.A.rXfXrXtXfXjXaX#X! ' q.-.=.~ 8 `.jXjXaXwX9X0X8X1XoX X.X>.",
"I X.Q < #.hXdXhX=X#. .9 , *.8.q.8.%.` <  .|.iXhXfXfXwX8X1XXXXX<.",
"} w.w.*.1 k.iX5.9 R _ %.8 ' ,.&.-.;.*.%./ 9 i @.l.qXfXrX0X+XZ.B.",
">.,.&.q.>.U 8 ' *.q.;.$./ 6 A.].$X6X+XB.,.*...W T 9 1.|.l.! 8 8 ",
"=X#X>X+X$X'.E B.+X+X#X$X$X .=XlXjXdXfXdX9X'.Z.M.w.$.< < I ` %.W ",
"aXfXsXfXdXjX6.<.lXgXhXjXkX5X+.fXpXaXyXuXaXjXdXaX9X[.E '.7X'.V.,.",
"yXaXpXdXdXgXiX:.uXrXpXpXpXjX#.c.jXaXfXaXaXaXaXaXfXyX+.gXgXjXfXqX"
};
