/* XPM */
static char *_638590125186[] = {
/* columns rows colors chars-per-pixel */
"32 32 228 2 ",
"   c #33301F",
".  c #2E2A22",
"X  c #372D25",
"o  c #353125",
"O  c #35332A",
"+  c #3D3A2B",
"@  c #3B3528",
"#  c #3F3B30",
"$  c #371110",
"%  c #4B1915",
"&  c #521B19",
"*  c #571B16",
"=  c #4B1C0C",
"-  c #5B241B",
";  c #5A2A1D",
":  c #492119",
">  c #652419",
",  c #682416",
"<  c #752919",
"1  c #72311B",
"2  c #562A29",
"3  c #413A2D",
"4  c #423E35",
"5  c #7A2C24",
"6  c #772D29",
"7  c #7A3622",
"8  c #7B3727",
"9  c #6C342D",
"0  c #3F4030",
"q  c #444235",
"w  c #4A463B",
"e  c #4D493C",
"r  c #484437",
"t  c #514D3C",
"y  c #57523E",
"u  c #7D442A",
"i  c #65463B",
"p  c #4E4B41",
"a  c #4B4640",
"s  c #524E42",
"d  c #565346",
"f  c #59554C",
"g  c #5C5A4E",
"h  c #575548",
"j  c #5B5A53",
"k  c #664D46",
"l  c #615C4E",
"z  c #74584B",
"x  c #625E53",
"c  c #645A55",
"v  c #646255",
"b  c #666459",
"n  c #6A665A",
"m  c #6D6B5C",
"M  c #6B6754",
"N  c #716E5E",
"B  c #756255",
"V  c #72715F",
"C  c #66644F",
"Z  c #6E6C62",
"A  c #716E62",
"S  c #747265",
"D  c #7B7566",
"F  c #7D7A65",
"G  c #747269",
"H  c #7B776A",
"J  c #7D7B6A",
"K  c #7C7B73",
"L  c #787570",
"P  c #8A3C2C",
"I  c #833B27",
"U  c #8B3C32",
"Y  c #903E32",
"T  c #913F27",
"R  c #84422A",
"E  c #9C4D2F",
"W  c #93442D",
"Q  c #824735",
"!  c #934431",
"~  c #9C4933",
"^  c #994B37",
"/  c #8D532D",
"(  c #A54D35",
")  c #AB4D33",
"_  c #A44E3A",
"`  c #A45534",
"'  c #A2543B",
"]  c #B05B3D",
"[  c #B85F3F",
"{  c #AC623C",
"}  c #B5633E",
"|  c #8E5848",
" . c #AB5B43",
".. c #A45642",
"X. c #AC5F49",
"o. c #896959",
"O. c #9C6858",
"+. c #9E715C",
"@. c #AA6948",
"#. c #B46345",
"$. c #B66B43",
"%. c #BC6A4B",
"&. c #B76748",
"*. c #BB724B",
"=. c #B87348",
"-. c #A16653",
";. c #BC6C54",
":. c #BE7554",
">. c #BD7A56",
",. c #A5705E",
"<. c #817E6A",
"1. c #877965",
"2. c #8E776A",
"3. c #AD7A67",
"4. c #B37A67",
"5. c #C16D48",
"6. c #C3794D",
"7. c #C1774A",
"8. c #C46F50",
"9. c #C37453",
"0. c #C57A52",
"q. c #C57857",
"w. c #BF805D",
"e. c #85856D",
"r. c #868473",
"t. c #898673",
"y. c #8B8A74",
"u. c #8D8B79",
"i. c #848B7B",
"p. c #928D75",
"a. c #918E7A",
"s. c #9B8B75",
"d. c #94927C",
"f. c #999779",
"g. c #938970",
"h. c #AA8A77",
"j. c #BA8A78",
"k. c #A29D7D",
"l. c #A39179",
"z. c #BA9077",
"x. c #9FA17C",
"c. c #A3A07F",
"v. c #C8875C",
"b. c #D38159",
"n. c #C78A68",
"m. c #D38D69",
"M. c #CB956E",
"N. c #D3926C",
"B. c #D99568",
"V. c #D99A75",
"C. c #CC927C",
"Z. c #E19679",
"A. c #DFA477",
"S. c #E2A778",
"D. c #969483",
"F. c #9A9784",
"G. c #9E9C84",
"H. c #A29E84",
"J. c #A69B89",
"K. c #A5A284",
"L. c #ABA384",
"P. c #A5A289",
"I. c #AAA68B",
"U. c #ACAA8B",
"Y. c #A7A889",
"T. c #B1A889",
"R. c #ABA792",
"E. c #B2AD92",
"W. c #B5B395",
"Q. c #BBB995",
"!. c #BBB49A",
"~. c #BDBB9B",
"^. c #B7B698",
"/. c #B4B28C",
"(. c #BCB7A1",
"). c #C09988",
"_. c #DAA685",
"`. c #DDB388",
"'. c #D7AC94",
"]. c #C1BD9C",
"[. c #C0BB95",
"{. c #D1AE97",
"}. c #E3AC85",
"|. c #E7A786",
" X c #EBB486",
".X c #ECB48A",
"XX c #E9B589",
"oX c #E1B592",
"OX c #EABD93",
"+X c #E3B89C",
"@X c #E8B998",
"#X c #F5B78E",
"$X c #C3BFA3",
"%X c #C1B6A0",
"&X c #D4B3A4",
"*X c #EAB6A0",
"=X c #BCC198",
"-X c #C3C29C",
";X c #EDC79B",
":X c #F3C49C",
">X c #F4CB9C",
",X c #FAC79B",
"<X c #ECCA94",
"1X c #C4C2A3",
"2X c #CAC4A8",
"3X c #DCC2A9",
"4X c #EAC2A3",
"5X c #F7CBA5",
"6X c #F3D0A5",
"7X c #FCDCAE",
"8X c #F9D3AB",
"9X c #E7C9B4",
"0X c #F8D9B9",
"qX c #EAD4BD",
"wX c #FBE3BC",
"eX c #F5E6BF",
"rX c #FBDCC5",
"tX c #F8DDCC",
"yX c #EED8C1",
"uX c #F3E3C4",
"iX c #FCE4C5",
"pX c #FDE5CA",
"aX c #FDEBCB",
"sX c #F9E7C8",
"dX c #FFE5D1",
"fX c #FFECD2",
"gX c #FFF2D3",
"hX c #FEF8D8",
/* pixels */
"n A # g H t.u.f.c.W.d.q A A r.a.D.L.T.J.y.2 < ' { ;.>.C.8 E :.9X",
"A n w b r.d.Y.U.W.1X<.s A S u.y.G.L.T.W.B > #.>.v.|..XV.7 #.N.aX",
"Z Z w v t.f.G.U.-XP.e l S A u.a.f.T.~.U.- ~ 6.m. X}. XXXQ ^ }.fX",
"S m q x <.f.Y.L.1XF r b S A t.a.k.W.2Xz , &.6._.}..X,X7Xj.P 4XsX",
"n S 4 x J d.K.U.(.y h b S A t.d.k.^.2.* ! =.m. X X>X5XiX'.< _.tX",
"v J w h D u.K.!.y.@ g v S m t.F.E.K.: 6 #.=.n. X;X6X0XaX,.< u o.",
"j S f e m u.G.d.+ o p b A S t.d.~.o.* _ %.*.m.XX6X8XaX9X8 @._.rX",
"r n v 4 m r.m + Z x O g b S t.G.Y.2 6 { 5.8.N.,X5X8XfXj.~ >.8XfX",
"O e S 4 v h + b S i.m O c A e.H.1.* ^ #.9.%.A.6X6XwXdXO.~ n.sXiX",
"S o d w O q l A F y.F.g o c D F.i > _ &.9.0.S.>X8XwXyXu ] V.aXrX",
"F.<.v r q g v G <.y.a.u.d 3 l l - I ( #.*.v.}.,XrXgX{.8 ;._.fXiX",
"G.I.W.D d g Z Z J d.y.y.J.t.N 3 % U ) #.7.v..X5X0XfX| ! :.5XiXiX",
"H.K.W.m e v S m t.a.y.G.K.U.!.R.2 > ( #.9.N. X:XrXT.< #.M.pXpXiX",
"K.L.].M w m S S t.i.y.P.K.U.W.2X2.& T [ 5.V. X8X'.8 ) 5.oXaXrXpX",
"U.k.1XM p b S A y.a.d.P.K./.[.W.].i > ' %.V.#X}.R ~ #.*.4XaXsXuX",
"P.k.-XN a m A S y.p.p.P.K.U.Q.~.-Xh.% ^ =.M.|./ Y #.6.*.*XaXuXfX",
"U.f.=XM . f Z S u.y.y.P.P.R.Q.Q.Q.%Xz > :.q.8 8  .*.9.$.`.gXpXz.",
"Y.K.^.C O O p V r.p.p.k.K.U.W.W.=X2Xi & P W -.8 ~ 9.6.*.C.&Xo.+.",
"H.K.E.h f h O O Z H t.l.K.c.W.1XJ.i ; R ` 5.Z.n.6 ..*.' 8 | 3XdX",
"p.G.F.r x G V e . b H D f.f.R.1.* 6 _ &.8.5.m.*X+XQ > 7 ^ *XfXuX",
"D a.r.4 n V J f.M O h L r.F.z % P _ ] 9.:.:.A.<X7X+X8  .@.+XgXuX",
"A F.m e V m y.i.H.y.w O f n % 6 _ E 7.*.*.V.}.<X>XrX| ` =.+XaXeX",
"o d 4 s S F e.u.x.Y.E.J s 3 % U ( #.0.$.B.#XA.:X8XdX+.W q.oXiXwX",
"H d # c V J d.D.K.L.U.1X2Xs.= Y ) #.9.9.|.}.`.>X>XaX&X8 %.oXhXtX",
"-X~.t x G <.u.d.P.c.!.!.-Xs.& Y ) %.9.9.|.}..X6X0XeXdX3...M.3.@.",
"~.I.r M G J y.d.Y.L.!.W.-Xl.& P ( #.9.6.S.S.:X8XeXiXdX0X8 R 4.qX",
"~.U.e b Z t.u.d.I.k.E.~.[.s.* I ) ] 0.$.m.S.:X6X0XaXpXh.I _.fXsX",
"1XI.w b Z t.t.p.I.k.E.~.-Xg.$ 9 ~ ' $.0.q. X<X>X8XrX+.1 ;.@XpXsX",
"$XI.e m Z e.a.y.f.U.U.^.1Xs X k 9 2 I %.0.v.}.OX7XC.< %.9.oXiXsX",
"~.E.e b S F d.u.d.G.K.W.<.X Z H S l 2 >  .b.V. X8XO.W 9.&.;XaXrX",
"$Xa.# b L V H y.d.d.F.y.o c A S <.i.K f - ' B.XX7X-...:.=.4XaXiX",
"I.t . f j v v b m Z G # r G S y.d.y.p.a.M ; O.V.n.9 P @.;.+XuXrX"
};
